<svg width="47" height="40" viewBox="0 0 47 40" fill="none" xmlns="http://www.w3.org/2000/svg">
<path d="M43.0602 39.6665C42.3385 39.667 41.6308 39.4817 41.0153 39.1311C34.4626 35.4378 29.0449 30.2348 25.2855 24.0249C21.5261 17.8149 19.5523 10.8079 19.5547 3.68108C19.5547 2.707 19.9707 1.77281 20.7111 1.08403C21.4516 0.395253 22.4559 0.00830078 23.5031 0.00830078C24.5503 0.00830078 25.5546 0.395253 26.295 1.08403C27.0355 1.77281 27.4515 2.707 27.4515 3.68108C27.4515 15.7007 34.0578 26.6089 45.1154 32.87C45.8481 33.2876 46.4143 33.9162 46.7281 34.6603C47.0419 35.4044 47.0861 36.2235 46.8541 36.9931C46.6221 37.7627 46.1265 38.441 45.4426 38.9249C44.7586 39.4087 43.9236 39.6719 43.0643 39.6743L43.0602 39.6665Z" fill="url(#paint0_linear_123_13755)"/>
<path d="M3.93643 39.666C3.07713 39.6636 2.24214 39.4004 1.55818 38.9165C0.874216 38.4327 0.378628 37.7544 0.146628 36.9848C-0.0853714 36.2152 -0.0411203 35.3961 0.272673 34.652C0.586466 33.9079 1.15267 33.2793 1.88534 32.8617C12.9492 26.6064 19.5492 15.6982 19.5492 3.67278C19.5492 2.6987 19.9652 1.76451 20.7057 1.07573C21.4462 0.386952 22.4505 0 23.4976 0C24.5448 0 25.5491 0.386952 26.2896 1.07573C27.0301 1.76451 27.446 2.6987 27.446 3.67278C27.45 10.8002 25.4769 17.808 21.7174 24.0185C17.9579 30.229 12.5392 35.4321 5.98544 39.1247C5.36943 39.478 4.66012 39.6654 3.93643 39.666Z" fill="url(#paint1_linear_123_13755)"/>
<path d="M3.96444 39.8307C3.08897 39.828 2.23918 39.5521 1.54803 39.0462C0.856884 38.5403 0.363394 37.833 0.144791 37.0349C-0.0738118 36.2368 -0.00519484 35.3931 0.339906 34.6356C0.685008 33.8782 1.28712 33.2498 2.05201 32.8488C8.64748 29.4398 16.05 27.6526 23.5742 27.6526C31.0984 27.6526 38.5009 29.4398 45.0964 32.8488C45.9637 33.3498 46.5928 34.1461 46.853 35.0722C47.1132 35.9984 46.9845 36.9833 46.4936 37.8224C46.0028 38.6616 45.1874 39.2906 44.2169 39.5787C43.2465 39.8669 42.1954 39.7921 41.2819 39.3699C35.8546 36.5674 29.7643 35.0983 23.5742 35.0983C17.384 35.0983 11.2938 36.5674 5.86646 39.3699C5.28429 39.673 4.62973 39.8316 3.96444 39.8307Z" fill="url(#paint2_linear_123_13755)"/>
<defs>
<linearGradient id="paint0_linear_123_13755" x1="44.2842" y1="37.8011" x2="26.5819" y2="22.24" gradientUnits="userSpaceOnUse">
<stop stop-color="#5F56AA"/>
<stop offset="1" stop-color="#A591F8"/>
</linearGradient>
<linearGradient id="paint1_linear_123_13755" x1="24.229" y1="0.976146" x2="5.83731" y2="36.326" gradientUnits="userSpaceOnUse">
<stop stop-color="#5F56AA"/>
<stop offset="1" stop-color="#A591F8"/>
</linearGradient>
<linearGradient id="paint2_linear_123_13755" x1="-4.54566" y1="37.5459" x2="41.7911" y2="35.002" gradientUnits="userSpaceOnUse">
<stop stop-color="#5F56AA"/>
<stop offset="1" stop-color="#A591F8"/>
</linearGradient>
</defs>
</svg>
