<svg width="66" height="95" viewBox="0 0 66 95" fill="none" xmlns="http://www.w3.org/2000/svg">
<g opacity="0.5">
<g opacity="0.11">
<path d="M35.3254 58.2222C33.7951 57.3295 31.8823 57.3295 30.3094 58.2222L0.511088 75.3956C0.0434957 75.6506 0.0434957 76.3308 0.511088 76.6283L30.5645 93.9717C31.9248 94.7794 33.6251 94.7794 34.9854 93.9717L65.0813 76.6283C65.5489 76.3733 65.5489 75.6931 65.0813 75.3956L35.3254 58.2222Z" fill="url(#paint0_linear_123_11419)"/>
</g>
<g opacity="0.11">
<path d="M35.3254 53.1637C33.7951 52.271 31.8823 52.271 30.3094 53.1637L0.511088 70.3371C0.0434957 70.5921 0.0434957 71.2723 0.511088 71.5698L30.5645 88.9133C31.9248 89.7209 33.6251 89.7209 34.9854 88.9133L65.0813 71.5698C65.5489 71.3148 65.5489 70.6346 65.0813 70.3371L35.3254 53.1637Z" fill="url(#paint1_linear_123_11419)"/>
</g>
<g opacity="0.11">
<path d="M35.3254 48.1477C33.7951 47.255 31.8823 47.255 30.3094 48.1477L0.511088 65.3211C0.0434957 65.5761 0.0434957 66.2563 0.511088 66.5538L30.5645 83.8973C31.9248 84.7049 33.6251 84.7049 34.9854 83.8973L65.0813 66.5538C65.5489 66.2988 65.5489 65.6187 65.0813 65.3211L35.3254 48.1477Z" fill="url(#paint2_linear_123_11419)"/>
</g>
<g opacity="0.11">
<path d="M35.3254 43.1318C33.7951 42.2391 31.8822 42.2391 30.3094 43.1318L0.511009 60.3052C0.0434165 60.5602 0.0434165 61.2404 0.511009 61.5379L30.5644 78.8813C31.9247 79.689 33.625 79.689 34.9853 78.8813L65.0812 61.5379C65.5488 61.2829 65.5488 60.6027 65.0812 60.3052L35.3254 43.1318Z" fill="url(#paint3_linear_123_11419)"/>
</g>
<path opacity="0.11" d="M65.0815 60.3052L35.3257 43.1318C33.7954 42.2391 31.8825 42.2391 30.3097 43.1318L0.511304 60.3052C0.256254 60.4327 0.171229 60.6878 0.171229 60.9003V75.9483C0.171229 76.2033 0.298762 76.4158 0.511304 76.5434L30.5647 93.8868C31.925 94.6944 33.6253 94.6944 34.9856 93.8868L65.0815 76.5434C65.3366 76.4158 65.4216 76.1608 65.4216 75.9483V60.9003C65.4216 60.6878 65.3366 60.4752 65.0815 60.3052Z" fill="url(#paint4_linear_123_11419)"/>
</g>
<g opacity="0.11">
<path d="M35.3254 37.4356C33.7951 36.5429 31.8823 36.5429 30.3094 37.4356L0.511088 54.609C0.0434957 54.8641 0.0434957 55.5442 0.511088 55.8417L30.5645 73.1852C31.9248 73.9928 33.6251 73.9928 34.9854 73.1852L65.0813 55.8417C65.5489 55.5867 65.5489 54.9066 65.0813 54.609L35.3254 37.4356Z" fill="url(#paint5_linear_123_11419)"/>
</g>
<g opacity="0.11">
<path d="M35.3254 32.4197C33.7951 31.527 31.8823 31.527 30.3094 32.4197L0.511088 49.593C0.0434957 49.8481 0.0434957 50.5282 0.511088 50.8258L30.5645 68.1692C31.9248 68.9769 33.6251 68.9769 34.9854 68.1692L65.0813 50.8258C65.5489 50.5707 65.5489 49.8906 65.0813 49.593L35.3254 32.4197Z" fill="url(#paint6_linear_123_11419)"/>
</g>
<g opacity="0.11">
<path d="M35.3254 27.4035C33.7951 26.5109 31.8823 26.5109 30.3094 27.4035L0.511088 44.5769C0.0434957 44.832 0.0434957 45.5121 0.511088 45.8097L30.5645 63.1531C31.9248 63.9608 33.6251 63.9608 34.9854 63.1531L65.0813 45.8097C65.5489 45.5546 65.5489 44.8745 65.0813 44.5769L35.3254 27.4035Z" fill="url(#paint7_linear_123_11419)"/>
</g>
<g opacity="0.11">
<path d="M35.3254 22.3877C33.7951 21.495 31.8822 21.495 30.3094 22.3877L0.511009 39.5611C0.0434165 39.8161 0.0434165 40.4963 0.511009 40.7938L30.5644 58.1373C31.9247 58.9449 33.625 58.9449 34.9853 58.1373L65.0812 40.7938C65.5488 40.5388 65.5488 39.8586 65.0812 39.5611L35.3254 22.3877Z" fill="url(#paint8_linear_123_11419)"/>
</g>
<path opacity="0.11" d="M65.0815 39.561L35.3257 22.3876C33.7954 21.4949 31.8825 21.4949 30.3097 22.3876L0.511304 39.561C0.256254 39.6885 0.171229 39.9435 0.171229 40.1561V55.204C0.171229 55.4591 0.298762 55.6716 0.511304 55.7992L30.5647 73.1426C31.925 73.9502 33.6253 73.9502 34.9856 73.1426L65.0815 55.7992C65.3366 55.6716 65.4216 55.4166 65.4216 55.204V40.1561C65.4216 39.9435 65.3366 39.6885 65.0815 39.561Z" fill="url(#paint9_linear_123_11419)"/>
<g opacity="0.11">
<path d="M35.3254 16.6492C33.7951 15.7565 31.8822 15.7565 30.3094 16.6492L0.511009 33.8225C0.0434165 34.0776 0.0434165 34.7577 0.511009 35.0553L30.5644 52.3987C31.9247 53.2064 33.625 53.2064 34.9853 52.3987L65.0812 35.0553C65.5488 34.8002 65.5488 34.1201 65.0812 33.8225L35.3254 16.6492Z" fill="url(#paint10_linear_123_11419)"/>
</g>
<g opacity="0.11">
<path d="M35.3254 11.6331C33.7951 10.7404 31.8822 10.7404 30.3094 11.6331L0.511009 28.8064C0.0434165 29.0615 0.0434165 29.7416 0.511009 30.0392L30.5644 47.3826C31.9247 48.1903 33.625 48.1903 34.9853 47.3826L65.0812 30.0392C65.5488 29.7841 65.5488 29.104 65.0812 28.8064L35.3254 11.6331Z" fill="url(#paint11_linear_123_11419)"/>
</g>
<g opacity="0.11">
<path d="M35.3254 6.61711C33.7951 5.72443 31.8822 5.72443 30.3094 6.61711L0.511009 23.7905C0.0434165 24.0455 0.0434165 24.7257 0.511009 25.0232L30.5644 42.3667C31.9247 43.1743 33.625 43.1743 34.9853 42.3667L65.0812 25.0232C65.5488 24.7682 65.5488 24.088 65.0812 23.7905L35.3254 6.61711Z" fill="url(#paint12_linear_123_11419)"/>
</g>
<g opacity="0.11">
<path d="M35.3253 1.60121C33.795 0.708533 31.8821 0.708533 30.3093 1.60121L0.51093 18.7746C0.0433374 19.0296 0.0433374 19.7098 0.51093 20.0073L30.5643 37.3508C31.9246 38.1584 33.6249 38.1584 34.9852 37.3508L65.0811 20.0073C65.5487 19.7523 65.5487 19.0722 65.0811 18.7746L35.3253 1.60121Z" fill="url(#paint13_linear_123_11419)"/>
</g>
<path opacity="0.5" d="M65.0814 18.7745L35.3256 1.60115C33.7953 0.708472 31.8824 0.708472 30.3096 1.60115L0.511225 18.7745C0.256175 18.9021 0.17115 19.1571 0.17115 19.3696V34.4176C0.17115 34.6727 0.298683 34.8852 0.511225 35.0127L30.5646 52.3562C31.9249 53.1638 33.6252 53.1638 34.9855 52.3562L65.0814 35.0127C65.3365 34.8852 65.4215 34.6302 65.4215 34.4176V19.3696C65.4215 19.1571 65.3365 18.9021 65.0814 18.7745Z" fill="url(#paint14_linear_123_11419)"/>
<g opacity="0.11">
<path d="M35.3253 1.60121C33.795 0.708533 31.8821 0.708533 30.3093 1.60121L0.51093 18.7746C0.0433374 19.0296 0.0433374 19.7098 0.51093 20.0073L30.5643 37.3508C31.9246 38.1584 33.6249 38.1584 34.9852 37.3508L65.0811 20.0073C65.5487 19.7523 65.5487 19.0722 65.0811 18.7746L35.3253 1.60121Z" fill="url(#paint15_linear_123_11419)"/>
</g>
<g opacity="0.5">
<path d="M33.8799 11.463C33.2423 11.0805 32.4346 11.0805 31.7545 11.463L18.4068 19.1571C18.1943 19.2846 18.1943 19.5822 18.4068 19.7097L31.797 27.4462C32.3921 27.7863 33.1572 27.7863 33.7524 27.4462L47.185 19.7097C47.3976 19.5822 47.3976 19.2846 47.185 19.1571L33.8799 11.463Z" fill="#42E8E0"/>
</g>
<path d="M18.4072 19.6247L31.7548 11.9307C32.3924 11.5481 33.2001 11.5481 33.8802 11.9307L47.2279 19.6247C47.2279 19.6247 47.2279 19.6672 47.2704 19.6672C47.4404 19.5397 47.4404 19.2847 47.2279 19.1571L33.8802 11.4631C33.2426 11.0805 32.435 11.0805 31.7548 11.4631L18.4072 19.1571C18.1946 19.2421 18.1946 19.4972 18.4072 19.6247Z" fill="#42E8E0"/>
<path d="M65.0809 19.3271L34.985 36.6705C33.6247 37.4782 31.9244 37.4782 30.5641 36.6705L0.510677 19.3271C0.383152 19.2421 0.298133 19.1571 0.255625 19.0721C0.0855911 19.3696 0.17061 19.8372 0.510677 20.0072L30.5641 37.3507C31.9244 38.1583 33.6247 38.1583 34.985 37.3507L65.0809 20.0072C65.421 19.7947 65.506 19.3696 65.336 19.0721C65.2934 19.1571 65.2084 19.2421 65.0809 19.3271Z" fill="url(#paint16_linear_123_11419)"/>
<path d="M3.69917 24.5981L4.4218 25.0232V24.5556L3.69917 24.1305V24.5981Z" fill="#42E8E0"/>
<path d="M3.69917 27.9562L4.4218 28.3813V25.4907L3.69917 25.0656V27.9562Z" fill="#42E8E0"/>
<path d="M3.69917 29.5716L4.4218 29.9967V28.849L3.69917 28.4239V29.5716Z" fill="#42E8E0"/>
<path d="M3.69917 31.2294L4.4218 31.6545V30.5068L3.69917 30.0817V31.2294Z" fill="#42E8E0"/>
<path d="M2.59396 25.5758L3.3166 26.0009V24.8532L2.59396 24.4281V25.5758Z" fill="#42E8E0"/>
<path d="M2.59396 27.7862L3.3166 28.2113V26.511L2.59396 26.0859V27.7862Z" fill="#42E8E0"/>
<path d="M2.59396 29.8266L3.3166 30.2517V28.8064L2.59396 28.3813V29.8266Z" fill="#42E8E0"/>
<path d="M3.69917 32.8872L4.4218 33.3123V32.1646L3.69917 31.7395V32.8872Z" fill="#42E8E0"/>
<path d="M2.59386 23.9605L3.31649 24.3856V23.918L2.59386 23.4929V23.9605Z" fill="#42E8E0"/>
<path d="M3.14657 34.205L4.42182 34.9276V34.46L3.14657 33.7374V34.205Z" fill="#42E8E0"/>
<defs>
<linearGradient id="paint0_linear_123_11419" x1="0.176207" y1="76.0282" x2="65.4364" y2="76.0282" gradientUnits="userSpaceOnUse">
<stop stop-color="#5761D7"/>
<stop offset="0.0725775" stop-color="#5472D8"/>
<stop offset="0.2791" stop-color="#4E9CDB"/>
<stop offset="0.4801" stop-color="#49BDDD"/>
<stop offset="0.6715" stop-color="#45D5DF"/>
<stop offset="0.8493" stop-color="#43E3E0"/>
<stop offset="1" stop-color="#42E8E0"/>
</linearGradient>
<linearGradient id="paint1_linear_123_11419" x1="0.176207" y1="71.008" x2="65.4364" y2="71.008" gradientUnits="userSpaceOnUse">
<stop stop-color="#5761D7"/>
<stop offset="0.0725775" stop-color="#5472D8"/>
<stop offset="0.2791" stop-color="#4E9CDB"/>
<stop offset="0.4801" stop-color="#49BDDD"/>
<stop offset="0.6715" stop-color="#45D5DF"/>
<stop offset="0.8493" stop-color="#43E3E0"/>
<stop offset="1" stop-color="#42E8E0"/>
</linearGradient>
<linearGradient id="paint2_linear_123_11419" x1="0.176207" y1="65.9877" x2="65.4364" y2="65.9877" gradientUnits="userSpaceOnUse">
<stop stop-color="#5761D7"/>
<stop offset="0.0725775" stop-color="#5472D8"/>
<stop offset="0.2791" stop-color="#4E9CDB"/>
<stop offset="0.4801" stop-color="#49BDDD"/>
<stop offset="0.6715" stop-color="#45D5DF"/>
<stop offset="0.8493" stop-color="#43E3E0"/>
<stop offset="1" stop-color="#42E8E0"/>
</linearGradient>
<linearGradient id="paint3_linear_123_11419" x1="0.176128" y1="60.9675" x2="65.4363" y2="60.9675" gradientUnits="userSpaceOnUse">
<stop stop-color="#5761D7"/>
<stop offset="0.0725775" stop-color="#5472D8"/>
<stop offset="0.2791" stop-color="#4E9CDB"/>
<stop offset="0.4801" stop-color="#49BDDD"/>
<stop offset="0.6715" stop-color="#45D5DF"/>
<stop offset="0.8493" stop-color="#43E3E0"/>
<stop offset="1" stop-color="#42E8E0"/>
</linearGradient>
<linearGradient id="paint4_linear_123_11419" x1="0.176415" y1="68.4979" x2="65.4366" y2="68.4979" gradientUnits="userSpaceOnUse">
<stop stop-color="#5761D7"/>
<stop offset="0.0725775" stop-color="#5472D8"/>
<stop offset="0.2791" stop-color="#4E9CDB"/>
<stop offset="0.4801" stop-color="#49BDDD"/>
<stop offset="0.6715" stop-color="#45D5DF"/>
<stop offset="0.8493" stop-color="#43E3E0"/>
<stop offset="1" stop-color="#42E8E0"/>
</linearGradient>
<linearGradient id="paint5_linear_123_11419" x1="0.176207" y1="55.2603" x2="65.4364" y2="55.2603" gradientUnits="userSpaceOnUse">
<stop stop-color="#5761D7"/>
<stop offset="0.0725775" stop-color="#5472D8"/>
<stop offset="0.2791" stop-color="#4E9CDB"/>
<stop offset="0.4801" stop-color="#49BDDD"/>
<stop offset="0.6715" stop-color="#45D5DF"/>
<stop offset="0.8493" stop-color="#43E3E0"/>
<stop offset="1" stop-color="#42E8E0"/>
</linearGradient>
<linearGradient id="paint6_linear_123_11419" x1="0.176207" y1="50.2401" x2="65.4364" y2="50.2401" gradientUnits="userSpaceOnUse">
<stop stop-color="#5761D7"/>
<stop offset="0.0725775" stop-color="#5472D8"/>
<stop offset="0.2791" stop-color="#4E9CDB"/>
<stop offset="0.4801" stop-color="#49BDDD"/>
<stop offset="0.6715" stop-color="#45D5DF"/>
<stop offset="0.8493" stop-color="#43E3E0"/>
<stop offset="1" stop-color="#42E8E0"/>
</linearGradient>
<linearGradient id="paint7_linear_123_11419" x1="0.176207" y1="45.2197" x2="65.4364" y2="45.2197" gradientUnits="userSpaceOnUse">
<stop stop-color="#5761D7"/>
<stop offset="0.0725775" stop-color="#5472D8"/>
<stop offset="0.2791" stop-color="#4E9CDB"/>
<stop offset="0.4801" stop-color="#49BDDD"/>
<stop offset="0.6715" stop-color="#45D5DF"/>
<stop offset="0.8493" stop-color="#43E3E0"/>
<stop offset="1" stop-color="#42E8E0"/>
</linearGradient>
<linearGradient id="paint8_linear_123_11419" x1="0.176128" y1="40.1996" x2="65.4363" y2="40.1996" gradientUnits="userSpaceOnUse">
<stop stop-color="#5761D7"/>
<stop offset="0.0725775" stop-color="#5472D8"/>
<stop offset="0.2791" stop-color="#4E9CDB"/>
<stop offset="0.4801" stop-color="#49BDDD"/>
<stop offset="0.6715" stop-color="#45D5DF"/>
<stop offset="0.8493" stop-color="#43E3E0"/>
<stop offset="1" stop-color="#42E8E0"/>
</linearGradient>
<linearGradient id="paint9_linear_123_11419" x1="0.176415" y1="47.7298" x2="65.4366" y2="47.7298" gradientUnits="userSpaceOnUse">
<stop stop-color="#5761D7"/>
<stop offset="0.0725775" stop-color="#5472D8"/>
<stop offset="0.2791" stop-color="#4E9CDB"/>
<stop offset="0.4801" stop-color="#49BDDD"/>
<stop offset="0.6715" stop-color="#45D5DF"/>
<stop offset="0.8493" stop-color="#43E3E0"/>
<stop offset="1" stop-color="#42E8E0"/>
</linearGradient>
<linearGradient id="paint10_linear_123_11419" x1="0.176128" y1="34.4924" x2="65.4363" y2="34.4924" gradientUnits="userSpaceOnUse">
<stop stop-color="#5761D7"/>
<stop offset="0.0725775" stop-color="#5472D8"/>
<stop offset="0.2791" stop-color="#4E9CDB"/>
<stop offset="0.4801" stop-color="#49BDDD"/>
<stop offset="0.6715" stop-color="#45D5DF"/>
<stop offset="0.8493" stop-color="#43E3E0"/>
<stop offset="1" stop-color="#42E8E0"/>
</linearGradient>
<linearGradient id="paint11_linear_123_11419" x1="0.176128" y1="29.4721" x2="65.4363" y2="29.4721" gradientUnits="userSpaceOnUse">
<stop stop-color="#5761D7"/>
<stop offset="0.0725775" stop-color="#5472D8"/>
<stop offset="0.2791" stop-color="#4E9CDB"/>
<stop offset="0.4801" stop-color="#49BDDD"/>
<stop offset="0.6715" stop-color="#45D5DF"/>
<stop offset="0.8493" stop-color="#43E3E0"/>
<stop offset="1" stop-color="#42E8E0"/>
</linearGradient>
<linearGradient id="paint12_linear_123_11419" x1="0.176128" y1="24.4519" x2="65.4363" y2="24.4519" gradientUnits="userSpaceOnUse">
<stop stop-color="#5761D7"/>
<stop offset="0.0725775" stop-color="#5472D8"/>
<stop offset="0.2791" stop-color="#4E9CDB"/>
<stop offset="0.4801" stop-color="#49BDDD"/>
<stop offset="0.6715" stop-color="#45D5DF"/>
<stop offset="0.8493" stop-color="#43E3E0"/>
<stop offset="1" stop-color="#42E8E0"/>
</linearGradient>
<linearGradient id="paint13_linear_123_11419" x1="0.176049" y1="19.4317" x2="65.4363" y2="19.4317" gradientUnits="userSpaceOnUse">
<stop stop-color="#5761D7"/>
<stop offset="0.0725775" stop-color="#5472D8"/>
<stop offset="0.2791" stop-color="#4E9CDB"/>
<stop offset="0.4801" stop-color="#49BDDD"/>
<stop offset="0.6715" stop-color="#45D5DF"/>
<stop offset="0.8493" stop-color="#43E3E0"/>
<stop offset="1" stop-color="#42E8E0"/>
</linearGradient>
<linearGradient id="paint14_linear_123_11419" x1="0.176336" y1="26.962" x2="65.4366" y2="26.962" gradientUnits="userSpaceOnUse">
<stop stop-color="#5761D7"/>
<stop offset="0.0725775" stop-color="#5472D8"/>
<stop offset="0.2791" stop-color="#4E9CDB"/>
<stop offset="0.4801" stop-color="#49BDDD"/>
<stop offset="0.6715" stop-color="#45D5DF"/>
<stop offset="0.8493" stop-color="#43E3E0"/>
<stop offset="1" stop-color="#42E8E0"/>
</linearGradient>
<linearGradient id="paint15_linear_123_11419" x1="0.176049" y1="19.4317" x2="65.4363" y2="19.4317" gradientUnits="userSpaceOnUse">
<stop stop-color="#5761D7"/>
<stop offset="0.0725775" stop-color="#5472D8"/>
<stop offset="0.2791" stop-color="#4E9CDB"/>
<stop offset="0.4801" stop-color="#49BDDD"/>
<stop offset="0.6715" stop-color="#45D5DF"/>
<stop offset="0.8493" stop-color="#43E3E0"/>
<stop offset="1" stop-color="#42E8E0"/>
</linearGradient>
<linearGradient id="paint16_linear_123_11419" x1="0.176177" y1="28.4798" x2="65.4356" y2="28.4798" gradientUnits="userSpaceOnUse">
<stop stop-color="#5472D8"/>
<stop offset="0.2791" stop-color="#4E9CDB"/>
<stop offset="0.4801" stop-color="#49BDDD"/>
<stop offset="0.6715" stop-color="#45D5DF"/>
<stop offset="0.8493" stop-color="#43E3E0"/>
<stop offset="1" stop-color="#42E8E0"/>
</linearGradient>
</defs>
</svg>
