<svg width="32" height="33" viewBox="0 0 32 33" fill="none" xmlns="http://www.w3.org/2000/svg">
<path d="M22.0001 0.804688H10.0001C4.47728 0.804688 0.00012207 5.28183 0.00012207 10.8047V22.8047C0.00012207 28.3275 4.47728 32.8047 10.0001 32.8047H22.0001C27.523 32.8047 32.0002 28.3275 32.0002 22.8047V10.8047C32.0002 5.28183 27.523 0.804688 22.0001 0.804688Z" fill="#485064"/>
<path d="M22.931 10.0481C21.6563 9.47261 20.2893 9.04859 18.8601 8.80571C18.8341 8.80102 18.8081 8.81274 18.7947 8.83615C18.6188 9.14383 18.4241 9.54518 18.2877 9.86067C16.7505 9.6342 15.2211 9.6342 13.7154 9.86067C13.579 9.53819 13.3772 9.14383 13.2006 8.83615C13.1872 8.81351 13.1612 8.80179 13.1352 8.80571C11.7068 9.04778 10.3398 9.47181 9.06426 10.0481C9.0532 10.0528 9.04375 10.0606 9.03746 10.0708C6.44464 13.8823 5.73433 17.6002 6.08277 21.2719C6.08433 21.2898 6.0946 21.307 6.10878 21.3179C7.81945 22.5541 9.47656 23.3045 11.1029 23.802C11.1289 23.8098 11.1564 23.8004 11.173 23.7793C11.5577 23.2624 11.9006 22.7173 12.1947 22.1441C12.212 22.1106 12.1954 22.0707 12.16 22.0575C11.616 21.8544 11.0981 21.6069 10.5998 21.3258C10.5604 21.3031 10.5573 21.2477 10.5936 21.2211C10.6984 21.1438 10.8033 21.0634 10.9034 20.9822C10.9215 20.9673 10.9468 20.9642 10.968 20.9735C14.2412 22.444 17.7847 22.444 21.0192 20.9735C21.0405 20.9634 21.0658 20.9666 21.0847 20.9814C21.1848 21.0626 21.2897 21.1438 21.3953 21.2211C21.4315 21.2476 21.4292 21.3031 21.3898 21.3257C20.8915 21.6123 20.3736 21.8544 19.8289 22.0566C19.7934 22.0699 19.7776 22.1105 19.795 22.1441C20.0954 22.7165 20.4383 23.2615 20.8159 23.7785C20.8317 23.8004 20.86 23.8098 20.886 23.8019C22.5202 23.3045 24.1773 22.554 25.888 21.3179C25.903 21.307 25.9124 21.2906 25.914 21.2726C26.331 17.0277 25.2155 13.3403 22.957 10.0715C22.9515 10.0606 22.942 10.0528 22.931 10.0481ZM12.6835 19.0362C11.6981 19.0362 10.8861 18.146 10.8861 17.0527C10.8861 15.9594 11.6823 15.0692 12.6835 15.0692C13.6925 15.0692 14.4967 15.9673 14.4809 17.0527C14.4809 18.146 13.6847 19.0362 12.6835 19.0362ZM19.3291 19.0362C18.3437 19.0362 17.5317 18.146 17.5317 17.0527C17.5317 15.9594 18.3279 15.0692 19.3291 15.0692C20.3382 15.0692 21.1423 15.9673 21.1265 17.0527C21.1265 18.146 20.3382 19.0362 19.3291 19.0362Z" fill="#F9FBFD"/>
</svg>
