<svg width="32" height="33" viewBox="0 0 32 33" fill="none" xmlns="http://www.w3.org/2000/svg">
<path d="M22.0001 0.804688H10C4.47719 0.804688 3.05176e-05 5.28183 3.05176e-05 10.8047V22.8047C3.05176e-05 28.3275 4.47719 32.8047 10 32.8047H22.0001C27.5229 32.8047 32.0001 28.3275 32.0001 22.8047V10.8047C32.0001 5.28183 27.5229 0.804688 22.0001 0.804688Z" fill="#485064"/>
<path fill-rule="evenodd" clip-rule="evenodd" d="M19.3438 18.0244L19.8592 14.413H16.6212V12.0708C16.6212 11.0833 17.073 10.1197 18.5253 10.1197H20V7.04881C19.1344 6.89933 18.2598 6.81774 17.383 6.80469C14.7145 6.80469 12.9683 8.53285 12.9683 11.6689V14.4222H10V18.0336H12.9683V26.8047H16.6212V18.0336L19.3438 18.0244Z" fill="#F9FBFD"/>
</svg>
