<svg width="177" height="50" viewBox="0 0 177 50" fill="none" xmlns="http://www.w3.org/2000/svg">
<path d="M54.0532 49.7937C53.1472 49.7942 52.2588 49.5616 51.4862 49.1215C43.2606 44.4853 36.4596 37.9539 31.7404 30.1585C27.0213 22.3631 24.5435 13.5672 24.5465 4.62073C24.5465 3.39795 25.0687 2.22526 25.9982 1.36063C26.9277 0.495999 28.1884 0.0102539 29.503 0.0102539C30.8175 0.0102539 32.0782 0.495999 33.0077 1.36063C33.9373 2.22526 34.4595 3.39795 34.4595 4.62073C34.4595 19.7091 42.7524 33.4022 56.6331 41.2619C57.5529 41.7861 58.2636 42.5752 58.6575 43.5093C59.0514 44.4434 59.107 45.4715 58.8158 46.4377C58.5245 47.4038 57.9024 48.2552 57.0438 48.8626C56.1852 49.47 55.1371 49.8003 54.0584 49.8034L54.0532 49.7937Z" fill="url(#paint0_linear_123_1016)"/>
<path d="M4.94144 49.7931C3.86275 49.7901 2.81458 49.4598 1.956 48.8523C1.09741 48.2449 0.475295 47.3935 0.184064 46.4274C-0.107168 45.4613 -0.0516187 44.4331 0.342289 43.499C0.736197 42.5649 1.44696 41.7759 2.36669 41.2516C16.2552 33.3992 24.5404 19.7061 24.5404 4.61047C24.5404 3.3877 25.0626 2.21501 25.9921 1.35038C26.9216 0.485745 28.1823 0 29.4968 0C30.8114 0 32.0721 0.485745 33.0016 1.35038C33.9311 2.21501 34.4533 3.3877 34.4533 4.61047C34.4583 13.5576 31.9814 22.3545 27.262 30.1507C22.5427 37.9468 15.7406 44.4783 7.51359 49.1137C6.7403 49.5571 5.84989 49.7924 4.94144 49.7931Z" fill="url(#paint1_linear_123_1016)"/>
<path d="M4.97629 50C3.87731 49.9966 2.81054 49.6502 1.94294 49.0152C1.07534 48.3801 0.455856 47.4922 0.181441 46.4904C-0.0929734 45.4885 -0.00683784 44.4293 0.426371 43.4785C0.859581 42.5277 1.61542 41.7389 2.57559 41.2356C10.855 36.9562 20.1474 34.7126 29.5926 34.7126C39.0378 34.7126 48.3303 36.9562 56.6096 41.2356C57.6984 41.8645 58.4882 42.864 58.8148 44.0266C59.1414 45.1892 58.9798 46.4256 58.3636 47.479C57.7474 48.5324 56.724 49.3219 55.5057 49.6836C54.2874 50.0454 52.968 49.9515 51.8213 49.4215C45.0083 45.9035 37.3632 44.0593 29.5926 44.0593C21.8221 44.0593 14.1769 45.9035 7.36392 49.4215C6.63311 49.802 5.81143 50.0011 4.97629 50Z" fill="url(#paint2_linear_123_1016)"/>
<path d="M72.9999 35.9998L79.7283 17.3452C80.0642 16.421 80.6175 15.7278 81.3882 15.2657C82.1588 14.7836 83.0283 14.5425 83.9966 14.5425C84.9648 14.5425 85.8343 14.7735 86.6049 15.2356C87.3756 15.6776 87.9289 16.3708 88.2648 17.315L95.0229 35.9998H89.6579L88.3537 31.9314H79.5505L78.187 35.9998H72.9999ZM80.825 27.7424H87.0792L84.4412 19.3342C84.4016 19.2137 84.3424 19.1333 84.2633 19.0931C84.204 19.0328 84.125 19.0027 84.0262 19.0027C83.9274 19.0027 83.8385 19.0328 83.7594 19.0931C83.7002 19.1534 83.6606 19.2338 83.6409 19.3342L80.825 27.7424Z" fill="#E8F1F9"/>
<path d="M96.8215 35.9998V31.7807H105.684C106.079 31.7807 106.435 31.6802 106.751 31.4793C107.067 31.2784 107.314 31.0172 107.492 30.6958C107.69 30.3743 107.789 30.0227 107.789 29.641C107.789 29.2392 107.69 28.8775 107.492 28.5561C107.314 28.2346 107.067 27.9734 106.751 27.7725C106.435 27.5716 106.079 27.4711 105.684 27.4711H102.483C101.277 27.4711 100.181 27.23 99.1928 26.7479C98.2047 26.2657 97.4143 25.5625 96.8215 24.6383C96.2484 23.694 95.9619 22.5689 95.9619 21.263C95.9619 19.9771 96.2386 18.8621 96.7919 17.9178C97.3452 16.9735 98.0961 16.2402 99.0446 15.7178C99.9931 15.1753 101.04 14.9041 102.186 14.9041H111.345V19.1233H102.75C102.394 19.1233 102.068 19.2137 101.771 19.3945C101.475 19.5753 101.248 19.8164 101.09 20.1178C100.932 20.4191 100.853 20.7506 100.853 21.1123C100.853 21.4739 100.932 21.8054 101.09 22.1068C101.248 22.3881 101.475 22.6191 101.771 22.7999C102.068 22.9808 102.394 23.0712 102.75 23.0712H106.099C107.423 23.0712 108.569 23.3324 109.537 23.8547C110.525 24.357 111.286 25.0702 111.82 25.9944C112.373 26.8985 112.65 27.9634 112.65 29.1889C112.65 30.6355 112.363 31.8711 111.79 32.8958C111.237 33.9003 110.486 34.6738 109.537 35.2163C108.589 35.7387 107.542 35.9998 106.395 35.9998H96.8215Z" fill="#E8F1F9"/>
<path d="M122.975 35.9998C121.414 35.9998 120.011 35.6483 118.766 34.9451C117.521 34.2419 116.533 33.2775 115.802 32.0519C115.09 30.8264 114.735 29.4501 114.735 27.9232C114.735 26.3762 115.09 24.9999 115.802 23.7945C116.533 22.5689 117.521 21.6045 118.766 20.9013C120.011 20.178 121.414 19.8164 122.975 19.8164C124.536 19.8164 125.929 20.178 127.154 20.9013C128.399 21.6045 129.377 22.5689 130.088 23.7945C130.82 24.9999 131.185 26.3762 131.185 27.9232C131.185 29.4501 130.82 30.8264 130.088 32.0519C129.377 33.2775 128.399 34.2419 127.154 34.9451C125.909 35.6483 124.516 35.9998 122.975 35.9998ZM122.975 31.9314C123.706 31.9314 124.338 31.7506 124.872 31.3889C125.405 31.0273 125.82 30.5451 126.117 29.9424C126.413 29.3396 126.561 28.6565 126.561 27.8931C126.561 27.1497 126.413 26.4766 126.117 25.8739C125.82 25.2712 125.405 24.789 124.872 24.4273C124.338 24.0657 123.706 23.8849 122.975 23.8849C122.244 23.8849 121.601 24.0657 121.048 24.4273C120.515 24.789 120.1 25.2712 119.803 25.8739C119.507 26.4766 119.359 27.1497 119.359 27.8931C119.359 28.6565 119.507 29.3396 119.803 29.9424C120.1 30.5451 120.515 31.0273 121.048 31.3889C121.601 31.7506 122.244 31.9314 122.975 31.9314Z" fill="#E8F1F9"/>
<path d="M141.567 35.9998C139.986 35.9998 138.583 35.6683 137.358 35.0053C136.133 34.3222 135.165 33.4081 134.453 32.2629C133.742 31.0976 133.386 29.7716 133.386 28.2848C133.386 26.7981 133.742 25.4821 134.453 24.3369C135.165 23.1716 136.133 22.2474 137.358 21.5643C138.583 20.8812 139.986 20.5397 141.567 20.5397H143.849V24.4876H141.745C140.974 24.4876 140.312 24.6584 139.759 24.9999C139.206 25.3214 138.771 25.7734 138.455 26.3561C138.158 26.9186 138.01 27.5616 138.01 28.2848C138.01 29.0081 138.158 29.6611 138.455 30.2437C138.771 30.8063 139.206 31.2583 139.759 31.5999C140.312 31.9213 140.974 32.0821 141.745 32.0821H143.849V35.9998H141.567Z" fill="#E8F1F9"/>
<path d="M146.449 35.9999V14H151.044V26.3863H153.059L156.527 20.5397H161.655L157.565 26.989C158.75 27.4913 159.669 28.2648 160.321 29.3095C160.993 30.3342 161.329 31.5396 161.329 32.9259V35.9999H156.705V32.9259C156.705 32.3634 156.567 31.8611 156.29 31.4191C156.033 30.957 155.687 30.5954 155.253 30.3342C154.818 30.073 154.324 29.9424 153.771 29.9424H151.044V35.9999H146.449Z" fill="#E8F1F9"/>
<path d="M164.076 35.9999V32.2931H171.397C171.595 32.2931 171.773 32.2529 171.931 32.1725C172.089 32.0721 172.217 31.9415 172.316 31.7807C172.415 31.62 172.464 31.4492 172.464 31.2684C172.464 31.0675 172.415 30.8867 172.316 30.726C172.217 30.5652 172.089 30.4447 171.931 30.3643C171.773 30.2639 171.595 30.2136 171.397 30.2136H168.729C167.741 30.2136 166.842 30.0529 166.032 29.7314C165.242 29.3899 164.609 28.8675 164.135 28.1643C163.681 27.441 163.453 26.5068 163.453 25.3616C163.453 24.4776 163.661 23.6739 164.076 22.9507C164.511 22.2274 165.094 21.6447 165.825 21.2027C166.576 20.7607 167.396 20.5397 168.285 20.5397H175.606V24.2767H168.996C168.72 24.2767 168.482 24.3671 168.285 24.5479C168.107 24.7287 168.018 24.9497 168.018 25.2109C168.018 25.4922 168.107 25.7333 168.285 25.9342C168.482 26.115 168.72 26.2054 168.996 26.2054H171.605C172.711 26.2054 173.66 26.3762 174.45 26.7178C175.26 27.0392 175.883 27.5616 176.317 28.2849C176.772 29.0082 176.999 29.9424 176.999 31.0876C176.999 31.9917 176.772 32.8154 176.317 33.5588C175.883 34.3022 175.29 34.8949 174.539 35.3369C173.808 35.7789 172.978 35.9999 172.049 35.9999H164.076Z" fill="#E8F1F9"/>
<defs>
<linearGradient id="paint0_linear_123_1016" x1="55.5897" y1="47.452" x2="33.3678" y2="27.918" gradientUnits="userSpaceOnUse">
<stop stop-color="#5F56AA"/>
<stop offset="1" stop-color="#A591F8"/>
</linearGradient>
<linearGradient id="paint1_linear_123_1016" x1="30.4149" y1="1.22537" x2="7.32764" y2="45.6004" gradientUnits="userSpaceOnUse">
<stop stop-color="#5F56AA"/>
<stop offset="1" stop-color="#A591F8"/>
</linearGradient>
<linearGradient id="paint2_linear_123_1016" x1="-5.70653" y1="47.1319" x2="52.4604" y2="43.9384" gradientUnits="userSpaceOnUse">
<stop stop-color="#5F56AA"/>
<stop offset="1" stop-color="#A591F8"/>
</linearGradient>
</defs>
</svg>
