<svg width="32" height="33" viewBox="0 0 32 33" fill="none" xmlns="http://www.w3.org/2000/svg">
<path d="M22.0001 0.804688H10.0001C4.47722 0.804688 6.10352e-05 5.28183 6.10352e-05 10.8047V22.8047C6.10352e-05 28.3275 4.47722 32.8047 10.0001 32.8047H22.0001C27.5229 32.8047 32.0001 28.3275 32.0001 22.8047V10.8047C32.0001 5.28183 27.5229 0.804688 22.0001 0.804688Z" fill="#485064"/>
<path fill-rule="evenodd" clip-rule="evenodd" d="M25.9401 12.681C25.8923 11.6167 25.722 10.8904 25.4759 10.2536C25.2188 9.58938 24.8258 8.98616 24.3222 8.48254C23.8186 7.97893 23.2154 7.58599 22.5512 7.32888C21.9143 7.08393 21.1881 6.91369 20.1238 6.8647C19.0595 6.81571 18.7165 6.80469 16.0001 6.80469C13.2836 6.80469 12.9382 6.81571 11.8776 6.8647C10.817 6.91369 10.0858 7.08271 9.45016 7.32888C8.78596 7.58599 8.18276 7.97893 7.67914 8.48254C7.17553 8.98616 6.78259 9.58938 6.52548 10.2536C6.28053 10.8904 6.10906 11.6167 6.0613 12.681C6.01353 13.7453 6.00006 14.0882 6.00006 16.8047C6.00006 19.5212 6.01231 19.8665 6.0613 20.9272C6.11029 21.9878 6.27808 22.719 6.52548 23.3546C6.78259 24.0188 7.17553 24.622 7.67914 25.1256C8.18276 25.6292 8.78596 26.0222 9.45016 26.2793C10.0858 26.5242 10.8133 26.6957 11.8776 26.7435C12.9419 26.7912 13.2848 26.8047 16.0001 26.8047C18.7153 26.8047 19.0619 26.7924 20.1238 26.7435C21.1856 26.6945 21.9143 26.5267 22.5512 26.2793C23.2154 26.0222 23.8186 25.6292 24.3222 25.1256C24.8258 24.622 25.2188 24.0188 25.4759 23.3546C25.7208 22.719 25.8923 21.9915 25.9401 20.9272C25.9878 19.8629 26.0001 19.5199 26.0001 16.8047C26.0001 14.0895 25.989 13.7477 25.9401 12.681ZM16.0001 21.9388C14.9843 21.9388 13.9914 21.6376 13.1469 21.0733C12.3024 20.5089 11.6442 19.7068 11.2555 18.7684C10.8669 17.83 10.7652 16.7974 10.9635 15.8012C11.1617 14.805 11.6509 13.8899 12.3693 13.1718C13.0876 12.4537 14.0027 11.9647 14.999 11.7666C15.9952 11.5686 17.0278 11.6705 17.9661 12.0594C18.9045 12.4483 19.7064 13.1067 20.2705 13.9513C20.8347 14.796 21.1356 15.789 21.1354 16.8047C21.1354 17.479 21.0026 18.1467 20.7445 18.7697C20.4864 19.3927 20.1081 19.9587 19.6312 20.4355C19.1543 20.9122 18.5882 21.2904 17.9652 21.5484C17.3421 21.8063 16.6744 21.939 16.0001 21.9388ZM21.3387 12.6663C21.1013 12.6663 20.8693 12.5959 20.6719 12.464C20.4745 12.3321 20.3207 12.1447 20.2298 11.9254C20.139 11.706 20.1152 11.4647 20.1615 11.2319C20.2078 10.9991 20.3221 10.7852 20.49 10.6173C20.6579 10.4495 20.8717 10.3352 21.1045 10.2889C21.3374 10.2426 21.5787 10.2663 21.798 10.3572C22.0173 10.448 22.2048 10.6019 22.3367 10.7992C22.4686 10.9966 22.5389 11.2287 22.5389 11.4661C22.5389 11.7844 22.4125 12.0897 22.1874 12.3148C21.9623 12.5398 21.657 12.6663 21.3387 12.6663ZM19.3363 16.8047C19.3363 17.4641 19.1407 18.1086 18.7744 18.6568C18.4081 19.2051 17.8874 19.6323 17.2783 19.8847C16.6691 20.137 15.9988 20.203 15.3521 20.0744C14.7054 19.9457 14.1114 19.6282 13.6452 19.162C13.179 18.6958 12.8615 18.1018 12.7328 17.4551C12.6042 16.8084 12.6702 16.1381 12.9225 15.5289C13.1749 14.9198 13.6021 14.3991 14.1504 14.0328C14.6986 13.6665 15.3432 13.471 16.0025 13.471C16.4404 13.4708 16.8739 13.5569 17.2785 13.7244C17.683 13.8919 18.0506 14.1374 18.3602 14.447C18.6698 14.7566 18.9153 15.1242 19.0828 15.5287C19.2503 15.9333 19.3364 16.3669 19.3363 16.8047Z" fill="#F9FBFD"/>
</svg>
