<svg width="74" height="74" viewBox="0 0 74 74" fill="none" xmlns="http://www.w3.org/2000/svg">
<path opacity="0.11" d="M57.7385 37.2496C57.7385 27.2305 55.3933 18.1744 51.6171 11.6334C47.8363 5.08459 42.6577 1.10995 37 1.10995C31.3423 1.10995 26.1637 5.08459 22.3829 11.6334C18.6066 18.1744 16.2615 27.2305 16.2615 37.2496C16.2615 47.2687 18.6066 56.3248 22.3829 62.8658C26.1637 69.4146 31.3423 73.3893 37 73.3893C42.6577 73.3893 47.8363 69.4146 51.6171 62.8658C55.3933 56.3248 57.7385 47.2687 57.7385 37.2496Z" stroke="white" stroke-width="0.594508"/>
<path opacity="0.11" d="M37.0001 57.9882C47.0192 57.9882 56.0752 55.643 62.6162 51.8668C69.1651 48.086 73.1397 42.9074 73.1397 37.2497C73.1397 31.592 69.1651 26.4134 62.6162 22.6326C56.0752 18.8564 47.0192 16.5112 37.0001 16.5112C26.981 16.5112 17.9249 18.8564 11.3839 22.6326C4.83506 26.4134 0.860425 31.592 0.860425 37.2497C0.860424 42.9074 4.83506 48.086 11.3839 51.8668C17.9249 55.643 26.981 57.9882 37.0001 57.9882Z" stroke="white" stroke-width="0.594508"/>
<path opacity="0.11" d="M66.4279 37.2965C66.4279 17.3741 53.1999 1.32879 36.9998 1.32879C20.7996 1.32879 7.57161 17.3741 7.57161 37.2965C7.57161 57.219 20.7996 73.2643 36.9998 73.2643C53.1999 73.2643 66.4279 57.219 66.4279 37.2965Z" stroke="white" stroke-width="0.594508"/>
<path opacity="0.11" d="M36.9537 66.6779C56.8761 66.6779 72.9214 53.4499 72.9214 37.2497C72.9214 21.0495 56.8761 7.82155 36.9537 7.82155C17.0312 7.82155 0.985913 21.0495 0.985912 37.2497C0.985912 53.4499 17.0312 66.6778 36.9537 66.6779Z" stroke="white" stroke-width="0.594508"/>
<path opacity="0.11" d="M46.8096 37.2965C46.8096 27.3013 45.6802 18.2631 43.8603 11.7331C42.9498 8.46601 41.8711 5.84364 40.6859 4.04497C39.493 2.23439 38.2413 1.32879 37.0002 1.32879C35.7591 1.32879 34.5074 2.23439 33.3144 4.04497C32.1293 5.84364 31.0506 8.46601 30.1401 11.7331C28.3202 18.2631 27.1908 27.3013 27.1908 37.2965C27.1908 47.2918 28.3202 56.3299 30.1401 62.86C31.0506 66.127 32.1293 68.7494 33.3144 70.5481C34.5074 72.3587 35.7591 73.2643 37.0002 73.2643C38.2413 73.2643 39.493 72.3587 40.6859 70.5481C41.8711 68.7494 42.9498 66.127 43.8603 62.86C45.6802 56.3299 46.8096 47.2918 46.8096 37.2965Z" stroke="white" stroke-width="0.594508"/>
<path opacity="0.11" d="M36.9537 47.0588C46.9489 47.0588 55.9871 45.9294 62.5171 44.1096C65.7842 43.1991 68.4065 42.1203 70.2052 40.9352C72.0158 39.7422 72.9214 38.4905 72.9214 37.2495C72.9214 36.0084 72.0158 34.7567 70.2052 33.5637C68.4065 32.3786 65.7842 31.2998 62.5171 30.3893C55.9871 28.5695 46.9489 27.4401 36.9537 27.4401C26.9584 27.4401 17.9203 28.5695 11.3902 30.3893C8.12314 31.2998 5.50077 32.3786 3.70209 33.5637C1.89152 34.7567 0.985913 36.0084 0.985913 37.2495C0.985913 38.4905 1.89152 39.7422 3.70209 40.9352C5.50077 42.1203 8.12314 43.1991 11.3902 44.1096C17.9203 45.9294 26.9584 47.0588 36.9537 47.0588Z" stroke="white" stroke-width="0.594508"/>
</svg>
