<svg width="338" height="26" viewBox="0 0 338 26" fill="none" xmlns="http://www.w3.org/2000/svg">
<g filter="url(#filter0_d_115_114)">
<path d="M307.989 13.5C313.782 13.5 319.288 18 325.081 18V18C330.007 18 334 13.9706 334 9.00001C334 4.02944 330.007 -1.74546e-07 325.081 -3.89858e-07V-3.89858e-07C319.288 -6.43087e-07 313.782 4.50001 307.989 4.50001L297.579 4.50001C291.785 4.50001 286.28 -2.08592e-06 280.486 -2.33915e-06V-2.33915e-06V-2.33915e-06C274.693 -2.59238e-06 269.188 4.50001 263.394 4.50001L252.984 4.50001C247.191 4.50001 241.685 -4.03521e-06 235.892 -4.28844e-06V-4.28844e-06V-4.28844e-06C230.099 -4.54167e-06 224.593 4.50001 218.8 4.5L208.389 4.5C202.596 4.5 197.09 -5.9845e-06 191.297 -6.23773e-06V-6.23773e-06V-6.23773e-06C185.504 -6.49096e-06 179.998 4.5 174.205 4.5L163.795 4.5C158.002 4.5 152.496 -7.9338e-06 146.703 -8.18702e-06V-8.18702e-06V-8.18702e-06C140.91 -8.44025e-06 135.404 4.5 129.611 4.5L119.2 4.5C113.407 4.5 107.901 -9.88309e-06 102.108 -1.01363e-05V-1.01363e-05V-1.01363e-05C96.3149 -1.03895e-05 90.8092 4.49999 85.016 4.49999L74.6057 4.49999C68.8125 4.49999 63.3067 -1.18324e-05 57.5135 -1.20856e-05V-1.20856e-05V-1.20856e-05C51.7203 -1.23388e-05 46.2146 4.49999 40.4214 4.49999L30.0111 4.49999C24.2179 4.49999 18.7121 -1.37817e-05 12.9189 -1.40349e-05V-1.40349e-05C7.99557 -1.42501e-05 4.00392 4.02549 4.00001 8.9927L4.00001 8.99998C4.00001 13.9705 7.99315 18 12.9189 18V18C18.7121 18 24.2179 13.5 30.0111 13.5L40.4214 13.5C46.2146 13.5 51.7203 18 57.5135 18V18V18C63.3067 18 68.8125 13.5 74.6057 13.5L85.016 13.5C90.8092 13.5 96.3149 18 102.108 18V18V18C107.901 18 113.407 13.5 119.2 13.5L129.611 13.5C135.404 13.5 140.91 18 146.703 18V18V18C152.496 18 158.002 13.5 163.795 13.5L174.205 13.5C179.998 13.5 185.504 18 191.297 18V18V18C197.09 18 202.596 13.5 208.389 13.5L218.8 13.5C224.593 13.5 230.099 18 235.892 18V18V18C241.685 18 247.191 13.5 252.984 13.5L263.394 13.5C269.188 13.5 274.693 18 280.486 18V18V18C286.28 18 291.785 13.5 297.579 13.5L307.989 13.5Z" fill="#682DE4"/>
</g>
<defs>
<filter id="filter0_d_115_114" x="0" y="0" width="338" height="26" filterUnits="userSpaceOnUse" color-interpolation-filters="sRGB">
<feFlood flood-opacity="0" result="BackgroundImageFix"/>
<feColorMatrix in="SourceAlpha" type="matrix" values="0 0 0 0 0 0 0 0 0 0 0 0 0 0 0 0 0 0 127 0" result="hardAlpha"/>
<feOffset dy="4"/>
<feGaussianBlur stdDeviation="2"/>
<feComposite in2="hardAlpha" operator="out"/>
<feColorMatrix type="matrix" values="0 0 0 0 0 0 0 0 0 0 0 0 0 0 0 0 0 0 0.25 0"/>
<feBlend mode="normal" in2="BackgroundImageFix" result="effect1_dropShadow_115_114"/>
<feBlend mode="normal" in="SourceGraphic" in2="effect1_dropShadow_115_114" result="shape"/>
</filter>
</defs>
</svg>
