<svg width="330" height="18" viewBox="0 0 330 18" fill="none" xmlns="http://www.w3.org/2000/svg">
<path d="M303.989 13.5C309.782 13.5 315.288 18 321.081 18C326.007 18 330 13.9706 330 9.00001C330 4.02944 326.007 -1.74546e-07 321.081 -3.89858e-07C315.288 -6.43087e-07 309.782 4.50001 303.989 4.50001L293.579 4.50001C287.785 4.50001 282.28 -2.08592e-06 276.486 -2.33915e-06C270.693 -2.59238e-06 265.188 4.50001 259.394 4.50001L248.984 4.50001C243.191 4.50001 237.685 -4.03521e-06 231.892 -4.28844e-06C226.099 -4.54167e-06 220.593 4.50001 214.8 4.5L204.389 4.5C198.596 4.5 193.09 -5.9845e-06 187.297 -6.23773e-06C181.504 -6.49096e-06 175.998 4.5 170.205 4.5L159.795 4.5C154.002 4.5 148.496 -7.9338e-06 142.703 -8.18702e-06C136.91 -8.44025e-06 131.404 4.5 125.611 4.5L115.2 4.5C109.407 4.5 103.901 -9.88309e-06 98.1081 -1.01363e-05C92.3149 -1.03895e-05 86.8092 4.49999 81.016 4.49999L70.6057 4.49999C64.8125 4.49999 59.3067 -1.18324e-05 53.5135 -1.20856e-05C47.7203 -1.23388e-05 42.2146 4.49999 36.4214 4.49999L26.0111 4.49999C20.2179 4.49999 14.7121 -1.37817e-05 8.91895 -1.40349e-05C3.99557 -1.42501e-05 0.00393659 4.02549 -3.93084e-07 8.9927L-3.93402e-07 8.99998C-6.10673e-07 13.9705 3.99316 18 8.91894 18C14.7121 18 20.2179 13.5 26.0111 13.5L36.4214 13.5C42.2146 13.5 47.7203 18 53.5135 18C59.3067 18 64.8125 13.5 70.6057 13.5L81.016 13.5C86.8092 13.5 92.3149 18 98.1081 18C103.901 18 109.407 13.5 115.2 13.5L125.611 13.5C131.404 13.5 136.91 18 142.703 18C148.496 18 154.002 13.5 159.795 13.5L170.205 13.5C175.998 13.5 181.504 18 187.297 18C193.09 18 198.596 13.5 204.389 13.5L214.8 13.5C220.593 13.5 226.099 18 231.892 18C237.685 18 243.191 13.5 248.984 13.5L259.394 13.5C265.188 13.5 270.693 18 276.486 18C282.28 18 287.785 13.5 293.579 13.5L303.989 13.5Z" fill="#D1C8FB"/>
</svg>
