<svg width="53" height="93" viewBox="0 0 53 93" fill="none" xmlns="http://www.w3.org/2000/svg">
<path opacity="0.5" d="M29.4866 27.3497L24.7839 36.2571L23.6221 42.3982V84.2796L24.7839 89.0376L29.4866 92.4678L52.9999 78.9684V13.7949L29.4866 27.3497Z" fill="url(#paint0_linear_123_11024)"/>
<path opacity="0.8" d="M31.257 30.8903L27.4396 38.0273L26.499 42.9513V82.0111L27.4396 85.8286L31.257 88.5948L50.0677 77.751V19.9912L31.257 30.8903Z" fill="url(#paint1_linear_123_11024)"/>
<path d="M27.5502 85.8839L26.6097 82.0664V43.0066L27.5502 38.0826L31.3123 30.9457L50.0677 20.1019V19.9912L31.257 30.8903L27.4396 38.0273L26.499 42.9513V82.0111L27.4396 85.8286L31.257 88.5948L27.5502 85.8839Z" fill="#16E09E"/>
<path d="M49.4598 20.3232V77.4191L30.7598 88.2629L31.2577 88.5948L50.0684 77.751V19.9912L49.4598 20.3232Z" fill="#16E09E"/>
<path d="M24.7843 36.257L1.6582 22.9235L6.41619 14.0161L29.4869 27.3496L24.7843 36.257Z" fill="#363699"/>
<path opacity="0.8" d="M0.496094 29.0095L23.6222 42.3983L24.784 36.2572L1.65793 22.9237L0.496094 29.0095Z" fill="#6771DF"/>
<path opacity="0.5" d="M6.41619 14.0161L29.4869 27.3496L24.7843 36.257L1.6582 22.9235L6.41619 14.0161Z" fill="url(#paint2_linear_123_11024)"/>
<path opacity="0.8" d="M0.496094 70.8908L23.6222 84.2796L24.784 89.0376L1.65793 75.7041L0.496094 70.8908Z" fill="#492B9E"/>
<path opacity="0.8" d="M24.7843 89.0376L1.6582 75.7041L6.41619 79.1343L29.4869 92.4677L24.7843 89.0376Z" fill="#28155E"/>
<path opacity="0.8" d="M23.6222 42.3982V84.2796L0.496094 70.8908V29.0094L23.6222 42.3982Z" fill="url(#paint3_linear_123_11024)"/>
<path opacity="0.5" d="M23.6222 42.3982V84.2796L0.496094 70.8908V29.0094L23.6222 42.3982Z" fill="url(#paint4_linear_123_11024)"/>
<path opacity="0.11" d="M49.4593 11.7478L48.6294 12.2458L46.7483 11.1392V10.1987L42.8755 7.98569L42.101 8.42829L40.1646 7.37711V6.43658L36.3471 4.16823L35.5172 4.66616L33.6362 3.55965V2.61912L29.874 0.461426L6.41602 14.0162L29.4868 27.3496L53.0001 13.7949L49.4593 11.7478Z" fill="url(#paint5_linear_123_11024)"/>
<path opacity="0.5" d="M49.4593 11.7478L48.6294 12.2458L46.7483 11.1392V10.1987L42.8755 7.98569L42.101 8.42829L40.1646 7.37711V6.43658L36.3471 4.16823L35.5172 4.66616L33.6362 3.55965V2.61912L29.874 0.461426L6.41602 14.0162L29.4868 27.3496L53.0001 13.7949L49.4593 11.7478Z" fill="url(#paint6_linear_123_11024)"/>
<path opacity="0.5" d="M8.1306 26.6304L12.8886 17.723L35.5167 4.66618L33.6357 3.55967V2.61914L10.1776 16.1739L5.41965 25.0813L4.25781 31.2224V73.1038L5.58562 78.5811L6.4155 79.1343L10.1776 81.292L8.1306 79.4109L6.96876 74.6529V32.7715L8.1306 26.6304Z" fill="url(#paint7_linear_123_11024)"/>
<path opacity="0.5" d="M6.24953 25.5792L10.9522 16.6718L33.6357 3.55967V2.61914L10.1776 16.1739L5.41965 25.0813L4.25781 31.2224V73.1038L5.58562 78.5811L6.4155 79.1343L5.0877 73.5464V31.665L6.24953 25.5792Z" fill="#16E09E"/>
<path opacity="0.5" d="M14.7146 30.448L19.4172 21.5406L42.8753 7.98587L42.1007 8.42848L40.1643 7.3773V6.43677L16.7063 19.9915L12.0036 28.8989L10.8418 34.9847V76.8661L12.2249 82.5093L16.7063 85.1096L14.7146 83.2286L13.5528 78.4153V36.5338L14.7146 30.448Z" fill="url(#paint8_linear_123_11024)"/>
<path opacity="0.5" d="M12.7782 29.3415L17.5362 20.4341L40.1643 7.3773V6.43677L16.7063 19.9915L12.0036 28.8989L10.8418 34.9847V76.8661L12.2249 82.5093L13.0548 82.9519L11.6164 77.3641V35.4827L12.7782 29.3415Z" fill="#16E09E"/>
<path opacity="0.5" d="M21.2439 34.21L26.0019 25.3026L48.63 12.2458L46.7489 11.1393V10.1987L23.2909 23.7535L18.5329 32.6609L17.3711 38.802V80.6834L18.8096 86.3266L23.2909 88.8716L21.2439 86.9905L20.082 82.2325V40.3511L21.2439 34.21Z" fill="url(#paint9_linear_123_11024)"/>
<path opacity="0.5" d="M23.2909 23.7535L18.5329 32.6609L17.3711 38.802V80.6834L18.8096 86.3266L19.5841 86.7692L18.201 81.126V39.2446L19.3628 33.1588L24.0655 24.2514L46.7489 11.1393V10.1987L23.2909 23.7535Z" fill="#16E09E"/>
<path d="M41.7129 48.2072L46.4156 45.4962V44.4451L41.7129 47.156V48.2072Z" fill="#16E09E"/>
<path d="M39.2783 49.5906L40.9934 48.5947V47.5989L39.2783 48.5394V49.5906Z" fill="#16E09E"/>
<path d="M37.3984 50.697L38.5603 50.0331V48.9819L37.3984 49.6458V50.697Z" fill="#16E09E"/>
<path d="M43.8154 49.3139L46.4157 47.8201V46.8242L43.8154 48.318V49.3139Z" fill="#16E09E"/>
<path opacity="0.3" d="M39.9434 51.582L43.0969 49.7563V48.7051L39.9434 50.5308V51.582Z" fill="#16E09E"/>
<path d="M38.0615 52.6334L39.2234 51.9695V50.9736L38.0615 51.6375V52.6334Z" fill="#16E09E"/>
<path opacity="0.3" d="M36.292 53.6848L37.4538 53.0209V51.9697L36.292 52.6336V53.6848Z" fill="#16E09E"/>
<path d="M44.5352 51.3057L46.4162 50.1992V49.2034L44.5352 50.2546V51.3057Z" fill="#16E09E"/>
<path d="M43.208 52.0801L43.8166 51.6928V50.6416L43.208 51.0289V52.0801Z" fill="#16E09E"/>
<path d="M41.3262 53.1312L42.488 52.4673V51.4714L41.3262 52.1353V53.1312Z" fill="#16E09E"/>
<path d="M39.5557 56.5615L46.416 52.578V51.5269L39.5557 55.5103V56.5615Z" fill="#16E09E"/>
<path d="M37.1211 57.9446L38.8362 56.9487V55.9529L37.1211 56.8934V57.9446Z" fill="#16E09E"/>
<path d="M44.5352 56.0084L46.4162 54.9572V53.906L44.5352 55.0125V56.0084Z" fill="#16E09E"/>
<path opacity="0.3" d="M40.1641 58.5532L43.8155 56.4508V55.3997L40.1641 57.502V58.5532Z" fill="#16E09E"/>
<path d="M38.2832 59.6597L39.445 58.9404V57.9446L38.2832 58.6085V59.6597Z" fill="#16E09E"/>
<path d="M42.5977 59.5489L46.4151 57.3359V56.2847L42.5977 58.4977V59.5489Z" fill="#16E09E"/>
<path d="M39.1133 61.5409L41.8796 59.9364V58.8853L39.1133 60.4897V61.5409Z" fill="#16E09E"/>
<path d="M36.5684 63.0345L38.3941 61.928V60.9321L36.5684 61.9833V63.0345Z" fill="#16E09E"/>
<path d="M45.1436 60.4342L46.416 59.715V58.6638L45.1436 59.3831V60.4342Z" fill="#16E09E"/>
<path opacity="0.3" d="M42.71 61.8174L44.4251 60.8769V59.8257L42.71 60.8215V61.8174Z" fill="#16E09E"/>
<path d="M39.2236 63.8093L41.9899 62.2602V61.209L39.2236 62.8134V63.8093Z" fill="#16E09E"/>
<path d="M42.4883 64.3623L46.4164 62.0386V61.0427L42.4883 63.3111V64.3623Z" fill="#16E09E"/>
<path d="M38.0615 66.9074L41.7683 64.7497V63.6985L38.0615 65.8562V66.9074Z" fill="#16E09E"/>
<path d="M36.1807 67.9585L37.3425 67.2946V66.2434L36.1807 66.9073V67.9585Z" fill="#16E09E"/>
<path d="M34.3555 69.0098L35.5173 68.3459V67.2947L34.3555 67.9586V69.0098Z" fill="#16E09E"/>
<path d="M44.0371 65.801L46.4161 64.4179V63.3667L44.0371 64.7498V65.801Z" fill="#16E09E"/>
<path opacity="0.3" d="M34.1891 52.5227L30.9249 54.4591V53.4079L34.1891 51.5268V52.5227Z" fill="#16E09E"/>
<path d="M33.4698 55.289L30.9249 56.7828V55.787L33.4698 54.2932V55.289Z" fill="#16E09E"/>
<path d="M32.7506 58.1107L30.9249 59.1619V58.1107L32.7506 57.0595V58.1107Z" fill="#16E09E"/>
<path d="M33.6358 59.9917L30.9249 61.5408V60.4896L33.6358 58.9405V59.9917Z" fill="#16E09E"/>
<path d="M32.7506 62.8133L30.9249 63.9198V62.8686L32.7506 61.8174V62.8133Z" fill="#16E09E"/>
<path opacity="0.3" d="M33.2485 64.9157L30.9249 66.2988V65.2476L33.2485 63.8645V64.9157Z" fill="#16E09E"/>
<path d="M32.1974 67.9032L30.9249 68.6224V67.6266L32.1974 66.852V67.9032Z" fill="#16E09E"/>
<path d="M33.4145 69.5631L30.9249 71.0016V70.0057L33.4145 68.5673V69.5631Z" fill="#16E09E"/>
<path d="M33.2485 71.9973L30.9249 73.3804V72.3292L33.2485 71.0014V71.9973Z" fill="#16E09E"/>
<path d="M42.3223 66.7966L43.3181 66.188V65.1921L42.3223 65.7454V66.7966Z" fill="#16E09E"/>
<path opacity="0.3" d="M39.334 68.5119L41.6023 67.1841V66.1882L39.334 67.4607V68.5119Z" fill="#16E09E"/>
<path d="M42.5977 69.0099L46.4151 66.8522V65.801L42.5977 68.014V69.0099Z" fill="#16E09E"/>
<path d="M39.1133 71.0567L41.8796 69.4523V68.4011L39.1133 70.0056V71.0567Z" fill="#16E09E"/>
<path d="M36.5684 72.5505L38.3941 71.444V70.3928L36.5684 71.4993V72.5505Z" fill="#16E09E"/>
<path d="M45.1436 69.9501L46.416 69.1755V68.1797L45.1436 68.8989V69.9501Z" fill="#16E09E"/>
<path opacity="0.3" d="M42.71 71.3333L44.4251 70.3374V69.3416L42.71 70.2821V71.3333Z" fill="#16E09E"/>
<path d="M39.2236 73.3252L41.9899 71.776V70.7249L39.2236 72.274V73.3252Z" fill="#16E09E"/>
<path d="M42.4883 73.823L46.4164 71.5547V70.5588L42.4883 72.8272V73.823Z" fill="#16E09E"/>
<path d="M38.0615 76.3682L41.7683 74.2658V73.2146L38.0615 75.3723V76.3682Z" fill="#16E09E"/>
<path d="M36.1807 77.4746L37.3425 76.8107V75.7595L36.1807 76.4234V77.4746Z" fill="#16E09E"/>
<path d="M34.3555 78.5256L35.5173 77.8617V76.8105L34.3555 77.4745V78.5256Z" fill="#16E09E"/>
<path d="M44.0371 75.3167L46.4161 73.9335V72.8823L44.0371 74.2655V75.3167Z" fill="#16E09E"/>
<path opacity="0.3" d="M33.2485 74.4317L30.9249 75.7595V74.7636L33.2485 73.3805V74.4317Z" fill="#16E09E"/>
<path d="M32.1974 77.4192L30.9249 78.1384V77.1426L32.1974 76.368V77.4192Z" fill="#16E09E"/>
<path d="M33.4145 79.079L30.9249 80.5174V79.4662L33.4145 78.0278V79.079Z" fill="#16E09E"/>
<path d="M33.2485 81.5133L30.9249 82.8964V81.8452L33.2485 80.5174V81.5133Z" fill="#16E09E"/>
<path d="M42.3223 76.3126L43.3181 75.704V74.6528L42.3223 75.2614V76.3126Z" fill="#16E09E"/>
<path opacity="0.3" d="M39.334 78.0278L41.6023 76.7V75.7041L39.334 76.9766V78.0278Z" fill="#16E09E"/>
<path d="M44.5352 30.2266L46.4162 29.1201V28.1243L44.5352 29.1754V30.2266Z" fill="#16E09E"/>
<path d="M43.208 31.0012L43.8166 30.6139V29.5627L43.208 29.95V31.0012Z" fill="#16E09E"/>
<path d="M41.3262 32.0523L42.488 31.3884V30.3926L41.3262 31.0565V32.0523Z" fill="#16E09E"/>
<path d="M39.5557 35.4824L46.416 31.4989V30.4478L39.5557 34.4312V35.4824Z" fill="#16E09E"/>
<path d="M37.1211 36.8655L38.8362 35.8696V34.8738L37.1211 35.8143V36.8655Z" fill="#16E09E"/>
<path d="M44.5352 34.9293L46.4162 33.8781V32.8269L44.5352 33.9334V34.9293Z" fill="#16E09E"/>
<path opacity="0.3" d="M40.1641 37.4744L43.8155 35.372V34.3208L40.1641 36.4232V37.4744Z" fill="#16E09E"/>
<path d="M38.2832 38.5808L39.445 37.8616V36.8657L38.2832 37.5296V38.5808Z" fill="#16E09E"/>
<path d="M42.5977 38.4147L46.4151 36.257V35.2058L42.5977 37.4188V38.4147Z" fill="#16E09E"/>
<path d="M39.1133 40.4618L41.8796 38.8573V37.8062L39.1133 39.4106V40.4618Z" fill="#16E09E"/>
<path d="M36.5684 41.9556L38.3941 40.8491V39.8533L36.5684 40.9045V41.9556Z" fill="#16E09E"/>
<path d="M45.1436 39.3554L46.416 38.6362V37.585L45.1436 38.3042V39.3554Z" fill="#16E09E"/>
<path opacity="0.3" d="M42.71 40.7383L44.4251 39.7978V38.7466L42.71 39.7424V40.7383Z" fill="#16E09E"/>
<path d="M39.2236 42.7302L41.9899 41.1811V40.1299L39.2236 41.7343V42.7302Z" fill="#16E09E"/>
<path d="M42.4883 43.2281L46.4164 40.9597V39.9639L42.4883 42.2322V43.2281Z" fill="#16E09E"/>
<path d="M38.0615 45.8285L41.7683 43.6708V42.6196L38.0615 44.7773V45.8285Z" fill="#16E09E"/>
<path d="M36.1807 46.8796L37.3425 46.2157V45.1646L36.1807 45.8285V46.8796Z" fill="#16E09E"/>
<path d="M34.3555 47.9307L35.5173 47.2668V46.2156L34.3555 46.8795V47.9307Z" fill="#16E09E"/>
<path d="M44.0371 44.7219L46.4161 43.3388V42.2876L44.0371 43.6707V44.7219Z" fill="#16E09E"/>
<path d="M32.7506 37.0316L30.9249 38.0828V37.0316L32.7506 35.9805V37.0316Z" fill="#16E09E"/>
<path d="M33.6358 38.9128L30.9249 40.4619V39.4107L33.6358 37.8616V38.9128Z" fill="#16E09E"/>
<path d="M32.7506 41.7342L30.9249 42.8407V41.7896L32.7506 40.7384V41.7342Z" fill="#16E09E"/>
<path opacity="0.3" d="M33.2485 43.8366L30.9249 45.2197V44.1686L33.2485 42.7854V43.8366Z" fill="#16E09E"/>
<path d="M32.1974 46.8242L30.9249 47.5434V46.5475L32.1974 45.773V46.8242Z" fill="#16E09E"/>
<path d="M33.4145 48.4839L30.9249 49.9224V48.8712L33.4145 47.4327V48.4839Z" fill="#16E09E"/>
<path d="M33.2485 50.9182L30.9249 52.3014V51.2502L33.2485 49.9224V50.9182Z" fill="#16E09E"/>
<path d="M42.3223 45.7177L43.3181 45.1091V44.1133L42.3223 44.6665V45.7177Z" fill="#16E09E"/>
<path opacity="0.3" d="M39.334 47.4328L41.6023 46.105V45.1091L39.334 46.3816V47.4328Z" fill="#16E09E"/>
<defs>
<linearGradient id="paint0_linear_123_11024" x1="24" y1="56" x2="53.0067" y2="53.1544" gradientUnits="userSpaceOnUse">
<stop stop-color="#5761D7"/>
<stop offset="0.0725775" stop-color="#5472D8"/>
<stop offset="0.2791" stop-color="#4E9CDB"/>
<stop offset="0.4801" stop-color="#49BDDD"/>
<stop offset="0.6715" stop-color="#45D5DF"/>
<stop offset="0.8493" stop-color="#43E3E0"/>
<stop offset="1" stop-color="#42E8E0"/>
</linearGradient>
<linearGradient id="paint1_linear_123_11024" x1="-1.89043" y1="51.4902" x2="76.659" y2="56.6753" gradientUnits="userSpaceOnUse">
<stop stop-color="#16E09E"/>
<stop offset="0.2205" stop-color="#3CC8AF"/>
<stop offset="0.7146" stop-color="#2D528E"/>
<stop offset="1" stop-color="#24126A"/>
</linearGradient>
<linearGradient id="paint2_linear_123_11024" x1="1.66495" y1="25.1291" x2="29.4888" y2="25.1291" gradientUnits="userSpaceOnUse">
<stop stop-color="#5761D7"/>
<stop offset="0.0725775" stop-color="#5472D8"/>
<stop offset="0.2791" stop-color="#4E9CDB"/>
<stop offset="0.4801" stop-color="#49BDDD"/>
<stop offset="0.6715" stop-color="#45D5DF"/>
<stop offset="0.8493" stop-color="#43E3D0"/>
<stop offset="1" stop-color="#16E09E"/>
</linearGradient>
<linearGradient id="paint3_linear_123_11024" x1="0.497932" y1="56.6607" x2="23.6275" y2="56.6607" gradientUnits="userSpaceOnUse">
<stop stop-color="#5761D7"/>
<stop offset="1" stop-color="#5472D8"/>
</linearGradient>
<linearGradient id="paint4_linear_123_11024" x1="0.497931" y1="56.6607" x2="70" y2="90.9999" gradientUnits="userSpaceOnUse">
<stop stop-color="#5761D7"/>
<stop offset="0.0725775" stop-color="#5472D8"/>
<stop offset="0.2791" stop-color="#4E9CDB"/>
<stop offset="0.4801" stop-color="#49BDDD"/>
<stop offset="0.6715" stop-color="#45D5DF"/>
<stop offset="0.8493" stop-color="#43E3E0"/>
<stop offset="1" stop-color="#42E8E0"/>
</linearGradient>
<linearGradient id="paint5_linear_123_11024" x1="6.4273" y1="13.8965" x2="53.0032" y2="13.8965" gradientUnits="userSpaceOnUse">
<stop stop-color="#5761D7"/>
<stop offset="0.0725775" stop-color="#5472D8"/>
<stop offset="0.2791" stop-color="#4E9CDB"/>
<stop offset="0.4801" stop-color="#49BDDD"/>
<stop offset="0.6715" stop-color="#45D5DF"/>
<stop offset="0.8493" stop-color="#43E3D0"/>
<stop offset="1" stop-color="#16E09E"/>
</linearGradient>
<linearGradient id="paint6_linear_123_11024" x1="6.4273" y1="13.8965" x2="53.0032" y2="13.8965" gradientUnits="userSpaceOnUse">
<stop stop-color="#5761D7"/>
<stop offset="0.0725775" stop-color="#5472D8"/>
<stop offset="0.2791" stop-color="#4E9CDB"/>
<stop offset="0.4801" stop-color="#49BDDD"/>
<stop offset="0.6715" stop-color="#45D5DF"/>
<stop offset="0.8493" stop-color="#43E3D0"/>
<stop offset="1" stop-color="#16E09E"/>
</linearGradient>
<linearGradient id="paint7_linear_123_11024" x1="4.27303" y1="41.9687" x2="71.1199" y2="41.9687" gradientUnits="userSpaceOnUse">
<stop stop-color="#16E09E"/>
<stop offset="0.2205" stop-color="#3CC8C0"/>
<stop offset="0.7146" stop-color="#2D528E"/>
<stop offset="1" stop-color="#24126A"/>
</linearGradient>
<linearGradient id="paint8_linear_123_11024" x1="10.8243" y1="45.758" x2="82.9993" y2="45.758" gradientUnits="userSpaceOnUse">
<stop stop-color="#16E09E"/>
<stop offset="0.2205" stop-color="#3CC8B7"/>
<stop offset="0.7146" stop-color="#2D528E"/>
<stop offset="1" stop-color="#24126A"/>
</linearGradient>
<linearGradient id="paint9_linear_123_11024" x1="17.3873" y1="49.5468" x2="91.105" y2="49.5468" gradientUnits="userSpaceOnUse">
<stop stop-color="#16E09E"/>
<stop offset="0.2205" stop-color="#3CC8C0"/>
<stop offset="0.7146" stop-color="#2D528E"/>
<stop offset="1" stop-color="#24126A"/>
</linearGradient>
</defs>
</svg>
