<svg width="32" height="33" viewBox="0 0 32 33" fill="none" xmlns="http://www.w3.org/2000/svg">
<path d="M22.0001 0.804688H10.0001C4.47725 0.804688 9.15527e-05 5.28183 9.15527e-05 10.8047V22.8047C9.15527e-05 28.3275 4.47725 32.8047 10.0001 32.8047H22.0001C27.523 32.8047 32.0001 28.3275 32.0001 22.8047V10.8047C32.0001 5.28183 27.523 0.804688 22.0001 0.804688Z" fill="#485064"/>
<path d="M25.8231 9.82131C25.9938 9.65312 26.0467 9.39717 25.9569 9.17389C25.8671 8.95069 25.6525 8.80469 25.4141 8.80469H19.5571C19.2335 8.80469 18.9711 9.06991 18.9711 9.39705V12.2462L16.7784 17.9931L12.7569 9.14964C12.6613 8.93943 12.4534 8.80473 12.2245 8.80473H6.73904C6.51271 8.80473 6.30665 8.93651 6.20962 9.14321C6.11267 9.3499 6.14208 9.59463 6.28525 9.77183L8.76501 12.8411V20.4233L6.12392 23.8481C5.98626 24.0266 5.96126 24.2688 6.05955 24.4723C6.15783 24.6757 6.36212 24.8047 6.58607 24.8047H12.1159C12.3398 24.8047 12.5441 24.6757 12.6424 24.4723C12.7407 24.2689 12.7157 24.0266 12.578 23.8481L9.93696 20.4233V15.1573L14.5088 24.4755C14.608 24.6778 14.8118 24.8046 15.0336 24.8046C15.0426 24.8046 15.0517 24.8045 15.0607 24.804C15.2929 24.7932 15.4967 24.6447 15.5804 24.4255L18.9712 15.5383V21.8041L17.3951 23.8481C17.2574 24.0266 17.2324 24.2688 17.3307 24.4723C17.429 24.6756 17.6333 24.8046 17.8572 24.8046H25.173C25.3969 24.8046 25.6013 24.6756 25.6996 24.4722C25.7978 24.2688 25.7728 24.0266 25.6351 23.8481L24.0589 21.8041V11.5597L25.8231 9.82131Z" fill="#F9FBFD"/>
</svg>
