<svg width="81" height="74" viewBox="0 0 81 74" fill="none" xmlns="http://www.w3.org/2000/svg">
<path d="M40.5415 73.0138C40.4585 73.0138 40.3754 73.0138 40.2923 72.9308L0.249221 49.8354C0.0830668 49.7523 0 49.5861 0 49.42C0 49.2538 0.0830668 49.0877 0.249221 49.0046L40.2923 25.9092C40.4585 25.8262 40.6246 25.8262 40.7077 25.9092L80.7508 49.0046C80.9169 49.0877 81 49.2538 81 49.42C81 49.5861 80.9169 49.7523 80.7508 49.8354L40.7077 72.9308C40.6246 73.0138 40.5415 73.0138 40.5415 73.0138ZM1.32922 49.42L40.4584 72.0169L79.5877 49.42L40.4584 26.8231L1.32922 49.42Z" fill="url(#paint0_linear_123_11278)"/>
<path d="M78.0087 40.6967V33.1367L40.541 53.906L2.99023 33.1367V40.6967L40.541 62.3798L78.0087 40.6967Z" fill="url(#paint1_linear_123_11278)"/>
<path opacity="0.5" d="M2.99023 40.3645V40.6968L40.541 62.3799L78.0087 40.6968V40.3645L40.541 62.0476L2.99023 40.3645Z" fill="white"/>
<path d="M40.541 54.82L2.99023 33.1369L40.541 11.4539L78.0087 33.1369L40.541 54.82Z" fill="url(#paint2_linear_123_11278)"/>
<path opacity="0.5" d="M40.541 54.2383L3.4887 32.8044L2.99023 33.1368L40.541 54.8198L78.0087 33.1368L77.5102 32.8044L40.541 54.2383Z" fill="white"/>
<path d="M40.5418 46.5122L17.2803 33.1369L40.5418 19.7615L63.7203 33.1369L40.5418 46.5122Z" fill="#0F054C"/>
<path opacity="0.5" d="M40.5408 46.5122L17.2793 33.1369L40.5408 19.7615L63.7193 33.1369L40.5408 46.5122Z" fill="url(#paint3_linear_123_11278)"/>
<path opacity="0.5" d="M40.541 0.986084L63.7195 14.4445V33.1369L40.541 19.7615V0.986084Z" fill="url(#paint4_linear_123_11278)"/>
<path opacity="0.5" d="M40.5408 19.7615L17.2793 33.1369V14.4445L40.5408 0.986084V19.7615Z" fill="url(#paint5_linear_123_11278)"/>
<path opacity="0.5" d="M40.5408 27.8199L17.2793 14.4445L40.5408 0.986084L63.7193 14.4445L40.5408 27.8199Z" fill="url(#paint6_linear_123_11278)"/>
<path opacity="0.5" d="M40.5408 27.8199L17.2793 14.4445L40.5408 0.986084L63.7193 14.4445L40.5408 27.8199Z" fill="url(#paint7_linear_123_11278)"/>
<path opacity="0.5" d="M40.5408 27.3215L17.6947 14.1953L17.2793 14.4445L40.5408 27.8199L63.7193 14.4445L63.3039 14.1953L40.5408 27.3215Z" fill="url(#paint8_linear_123_11278)"/>
<path opacity="0.5" d="M40.541 27.82V46.5123L63.7195 33.1369V14.4446L40.541 27.82Z" fill="url(#paint9_linear_123_11278)"/>
<path opacity="0.5" d="M17.2793 14.4446V33.1369L40.5408 46.5123V27.82L17.2793 14.4446Z" fill="url(#paint10_linear_123_11278)"/>
<defs>
<linearGradient id="paint0_linear_123_11278" x1="0.0105508" y1="49.4502" x2="80.9919" y2="49.4502" gradientUnits="userSpaceOnUse">
<stop stop-color="#42E8E0"/>
<stop offset="0.1507" stop-color="#43E3E0"/>
<stop offset="0.3285" stop-color="#45D5DF"/>
<stop offset="0.5199" stop-color="#49BDDD"/>
<stop offset="0.7209" stop-color="#4E9CDB"/>
<stop offset="0.9274" stop-color="#5472D8"/>
<stop offset="1" stop-color="#5761D7"/>
</linearGradient>
<linearGradient id="paint1_linear_123_11278" x1="2.95592" y1="47.7789" x2="56.4624" y2="47.7789" gradientUnits="userSpaceOnUse">
<stop offset="0.2473" stop-color="#5761D7"/>
<stop offset="0.4363" stop-color="#6C74DF"/>
<stop offset="0.8245" stop-color="#A2A6F5"/>
<stop offset="1" stop-color="#BCBEFF"/>
</linearGradient>
<linearGradient id="paint2_linear_123_11278" x1="2.95592" y1="33.1527" x2="78.0452" y2="33.1527" gradientUnits="userSpaceOnUse">
<stop stop-color="#C0BFF6"/>
<stop offset="0.2938" stop-color="#C5C4F7"/>
<stop offset="0.6399" stop-color="#D3D2F9"/>
<stop offset="1" stop-color="#E9E9FD"/>
</linearGradient>
<linearGradient id="paint3_linear_123_11278" x1="17.2897" y1="33.1528" x2="63.711" y2="33.1528" gradientUnits="userSpaceOnUse">
<stop stop-color="#42E8E0"/>
<stop offset="0.1507" stop-color="#43E3E0"/>
<stop offset="0.3285" stop-color="#45D5DF"/>
<stop offset="0.5199" stop-color="#49BDDD"/>
<stop offset="0.7209" stop-color="#4E9CDB"/>
<stop offset="0.9274" stop-color="#5472D8"/>
<stop offset="1" stop-color="#5761D7"/>
</linearGradient>
<linearGradient id="paint4_linear_123_11278" x1="40.5002" y1="17.0788" x2="63.7112" y2="17.0788" gradientUnits="userSpaceOnUse">
<stop stop-color="#42E8E0"/>
<stop offset="0.1507" stop-color="#43E3E0"/>
<stop offset="0.3285" stop-color="#45D5DF"/>
<stop offset="0.5199" stop-color="#49BDDD"/>
<stop offset="0.7209" stop-color="#4E9CDB"/>
<stop offset="0.9274" stop-color="#5472D8"/>
<stop offset="1" stop-color="#5761D7"/>
</linearGradient>
<linearGradient id="paint5_linear_123_11278" x1="17.2897" y1="17.0787" x2="40.5007" y2="17.0787" gradientUnits="userSpaceOnUse">
<stop stop-color="#42E8E0"/>
<stop offset="0.1507" stop-color="#43E3E0"/>
<stop offset="0.3285" stop-color="#45D5DF"/>
<stop offset="0.5199" stop-color="#49BDDD"/>
<stop offset="0.7209" stop-color="#4E9CDB"/>
<stop offset="0.9274" stop-color="#5472D8"/>
<stop offset="1" stop-color="#5761D7"/>
</linearGradient>
<linearGradient id="paint6_linear_123_11278" x1="17.2897" y1="14.4055" x2="63.711" y2="14.4055" gradientUnits="userSpaceOnUse">
<stop stop-color="#42E8E0"/>
<stop offset="0.1507" stop-color="#43E3E0"/>
<stop offset="0.3285" stop-color="#45D5DF"/>
<stop offset="0.5199" stop-color="#49BDDD"/>
<stop offset="0.7209" stop-color="#4E9CDB"/>
<stop offset="0.9274" stop-color="#5472D8"/>
<stop offset="1" stop-color="#5761D7"/>
</linearGradient>
<linearGradient id="paint7_linear_123_11278" x1="17.2897" y1="14.4055" x2="63.711" y2="14.4055" gradientUnits="userSpaceOnUse">
<stop stop-color="#42E8E0"/>
<stop offset="0.1507" stop-color="#43E3E0"/>
<stop offset="0.3285" stop-color="#45D5DF"/>
<stop offset="0.5199" stop-color="#49BDDD"/>
<stop offset="0.7209" stop-color="#4E9CDB"/>
<stop offset="0.9274" stop-color="#5472D8"/>
<stop offset="1" stop-color="#5761D7"/>
</linearGradient>
<linearGradient id="paint8_linear_123_11278" x1="40.5004" y1="18.0293" x2="40.5004" y2="-28.392" gradientUnits="userSpaceOnUse">
<stop stop-color="#42E8E0"/>
<stop offset="0.1507" stop-color="#43E3E0"/>
<stop offset="0.3285" stop-color="#45D5DF"/>
<stop offset="0.5199" stop-color="#49BDDD"/>
<stop offset="0.7209" stop-color="#4E9CDB"/>
<stop offset="0.9274" stop-color="#5472D8"/>
<stop offset="1" stop-color="#5761D7"/>
</linearGradient>
<linearGradient id="paint9_linear_123_11278" x1="-11.699" y1="30.4795" x2="83.5163" y2="30.4795" gradientUnits="userSpaceOnUse">
<stop stop-color="#42E8E0"/>
<stop offset="0.1507" stop-color="#43E3E0"/>
<stop offset="0.3285" stop-color="#45D5DF"/>
<stop offset="0.5199" stop-color="#49BDDD"/>
<stop offset="0.7209" stop-color="#4E9CDB"/>
<stop offset="0.9274" stop-color="#5472D8"/>
<stop offset="1" stop-color="#5761D7"/>
</linearGradient>
<linearGradient id="paint10_linear_123_11278" x1="8.64868" y1="20.2517" x2="56.0741" y2="44.209" gradientUnits="userSpaceOnUse">
<stop stop-color="#42E8E0"/>
<stop offset="0.1507" stop-color="#43E3E0"/>
<stop offset="0.3285" stop-color="#45D5DF"/>
<stop offset="0.5199" stop-color="#49BDDD"/>
<stop offset="0.7209" stop-color="#4E9CDB"/>
<stop offset="0.9274" stop-color="#5472D8"/>
<stop offset="1" stop-color="#5761D7"/>
</linearGradient>
</defs>
</svg>
