<svg width="68" height="133" viewBox="0 0 68 133" fill="none" xmlns="http://www.w3.org/2000/svg">
<path d="M33.8539 132.36C32.0689 132.36 30.2839 131.935 28.9239 131.17L2.91391 116.125C1.55391 115.36 0.788906 114.255 0.788906 113.15C0.788906 112.045 1.55391 110.94 2.91391 110.175L28.9239 95.13C31.6439 93.6 35.9789 93.6 38.6989 95.13L64.7089 110.175C66.0689 110.94 66.8339 112.045 66.8339 113.15C66.8339 114.255 66.0689 115.36 64.7089 116.125L38.7839 131.17C37.4239 131.935 35.6389 132.36 33.8539 132.36ZM33.8539 94.535C32.1539 94.535 30.4539 94.875 29.1789 95.64L3.16892 110.685C1.97892 111.365 1.29891 112.3 1.29891 113.235C1.29891 114.17 1.97892 115.105 3.16892 115.785L29.1789 130.83C31.7289 132.36 35.9789 132.36 38.5289 130.83L64.5389 115.785C65.7289 115.105 66.4089 114.17 66.4089 113.235C66.4089 112.3 65.7289 111.365 64.5389 110.685L38.5289 95.64C37.2539 94.875 35.5539 94.535 33.8539 94.535Z" fill="#42E8E0"/>
<path opacity="0.4" d="M67.598 107.455V98.5305L65.983 97.5955C65.558 100.4 62.243 102.185 59.523 102.61L40.908 113.49L32.748 116.465L6.82302 103.12L7.41803 102.78C5.20803 101.76 4.01804 99.3805 2.82804 97.2555L1.04303 98.2755L0.0230207 98.5305V107.54C0.0230207 108.73 0.788031 109.835 2.31803 110.685L28.328 125.73C31.388 127.515 36.318 127.515 39.378 125.73L65.388 110.685C66.918 109.835 67.683 108.73 67.683 107.54C67.598 107.54 67.598 107.455 67.598 107.455Z" fill="#42E8E0"/>
<path d="M67.598 99.55V93.685L65.983 92.75C65.558 95.555 62.243 97.34 59.523 97.765L40.908 108.645L32.748 111.62L6.82302 98.275L7.41803 97.935C5.20803 96.915 4.01804 94.535 2.82804 92.41L1.04303 93.43L0.0230207 93.685V99.72C0.0230207 100.91 0.788031 102.015 2.31803 102.865L28.328 117.91C31.388 119.695 36.318 119.695 39.378 117.91L65.388 102.865C66.918 102.015 67.683 100.91 67.683 99.72C67.598 99.635 67.598 99.55 67.598 99.55Z" fill="url(#paint0_linear_123_11182)"/>
<path opacity="0.3" d="M59.523 97.68L40.908 108.56L33.853 111.11V119.1C35.893 119.1 37.848 118.675 39.378 117.74L65.388 102.695C66.918 101.845 67.683 100.74 67.683 99.55C67.683 99.465 67.683 99.465 67.683 99.38V93.515L66.153 92.665H65.983C65.473 95.555 62.243 97.34 59.523 97.68Z" fill="#0F054C"/>
<path d="M7.41892 97.85L32.0689 83.655C33.0039 83.06 34.6189 83.06 35.6389 83.655L59.8639 97.595L59.6089 97.765C62.3289 97.425 65.6439 95.555 66.0689 92.75L38.9539 77.62L31.0489 75.495L24.5889 79.235L2.91391 92.155C4.01891 94.45 5.20892 96.745 7.41892 97.85Z" fill="url(#paint1_linear_123_11182)"/>
<path opacity="0.3" d="M33.853 76.3451L30.963 75.58L24.503 79.3201L2.82802 92.2401C4.01802 94.3651 5.20802 96.745 7.41802 97.765L32.068 83.5701C32.578 83.3151 33.173 83.1451 33.853 83.1451V76.3451Z" fill="#0F054C"/>
<path d="M28.3294 111.79L2.31937 96.7451C-0.740625 94.9601 -0.740625 92.1551 2.31937 90.3701L28.3294 75.325C31.3894 73.54 36.3194 73.54 39.3794 75.325L65.3894 90.3701C68.4494 92.1551 68.4494 94.9601 65.3894 96.7451L39.3794 111.79C36.3194 113.575 31.3894 113.575 28.3294 111.79ZM35.6394 77.6201C34.7044 77.0251 33.0894 77.0251 32.0694 77.6201L6.05937 92.6651C5.12437 93.2601 5.12437 94.1101 6.05937 94.7051L32.0694 109.75C33.0044 110.345 34.6194 110.345 35.6394 109.75L61.6494 94.7051C62.5844 94.1101 62.5844 93.2601 61.6494 92.6651L35.6394 77.6201Z" fill="url(#paint2_linear_123_11182)"/>
<path d="M61.5632 92.58L35.5532 77.535C34.6182 76.94 33.0032 76.94 31.9832 77.535L5.97323 92.58C5.29323 92.92 5.12324 93.515 5.29324 93.94C5.37824 93.685 5.63323 93.515 5.97323 93.26L31.9832 78.215C32.9182 77.62 34.5332 77.62 35.5532 78.215L61.5632 93.26C61.9032 93.43 62.0732 93.685 62.2432 93.94C62.4982 93.515 62.2432 93.005 61.5632 92.58Z" fill="white"/>
<path d="M65.3882 96.83L39.3782 111.875C36.3182 113.66 31.3882 113.66 28.3282 111.875L2.31819 96.83C0.958192 96.065 0.193182 95.045 0.0231816 94.025C-0.146818 95.3 0.618192 96.575 2.31819 97.595L28.3282 112.64C31.3882 114.425 36.3182 114.425 39.3782 112.64L65.3882 97.595C67.0882 96.66 67.8532 95.3 67.6832 94.025C67.4282 95.045 66.7482 96.065 65.3882 96.83Z" fill="white"/>
<path d="M29.0934 111.365L3.08335 96.4053C0.448347 94.8753 0.448347 92.4103 3.08335 90.8803L29.0934 75.8353C31.7284 74.3053 36.0633 74.3053 38.6983 75.8353L64.7083 90.8803C67.3433 92.4103 67.3433 94.8753 64.7083 96.4053L38.6983 111.45C35.9783 112.895 31.7284 112.895 29.0934 111.365ZM36.3184 77.1953C34.9584 76.4303 32.6634 76.4303 31.3034 77.1953L5.29335 92.2403C3.93335 93.0053 3.93335 94.3653 5.29335 95.1303L31.3034 110.175C32.6634 110.94 34.9584 110.94 36.3184 110.175L62.3284 95.1303C63.6884 94.3653 63.6884 93.0053 62.3284 92.2403L36.3184 77.1953Z" fill="url(#paint3_linear_123_11182)"/>
<path opacity="0.4" d="M35.6389 77.62C34.7039 77.025 33.0889 77.025 32.0689 77.62L6.05891 92.665C5.12391 93.26 5.12391 94.11 6.05891 94.705L32.0689 109.75C33.0039 110.345 34.6189 110.345 35.6389 109.75L61.6489 94.705C62.5839 94.11 62.5839 93.26 61.6489 92.665L35.6389 77.62Z" fill="#42E8E0"/>
<path opacity="0.5" d="M62.328 93.6V0.950012H5.37802V93.6C5.37802 93.94 5.63302 94.365 6.14302 94.62L32.153 109.665C33.088 110.26 34.703 110.26 35.723 109.665L61.733 94.62C62.073 94.365 62.328 94.025 62.328 93.6Z" fill="url(#paint4_linear_123_11182)"/>
<path d="M33.8539 104.14C32.0689 104.14 30.2839 103.715 28.9239 102.95L2.91391 87.9051C1.55391 87.1401 0.788906 86.0351 0.788906 84.9301C0.788906 83.8251 1.55391 82.7201 2.91391 81.9551L28.9239 66.9101C31.6439 65.3801 35.9789 65.3801 38.6989 66.9101L64.7089 81.9551C66.0689 82.7201 66.8339 83.8251 66.8339 84.9301C66.8339 86.0351 66.0689 87.1401 64.7089 87.9051L38.7839 103.035C37.4239 103.8 35.6389 104.14 33.8539 104.14ZM33.8539 66.3151C32.1539 66.3151 30.4539 66.6551 29.1789 67.4201L3.16892 82.4651C1.97892 83.1451 1.29891 84.0801 1.29891 85.0151C1.29891 85.9501 1.97892 86.8851 3.16892 87.5651L29.1789 102.61C31.7289 104.14 35.9789 104.14 38.5289 102.61L64.5389 87.5651C65.7289 86.8851 66.4089 85.9501 66.4089 85.0151C66.4089 84.0801 65.7289 83.1451 64.5389 82.4651L38.5289 67.4201C37.2539 66.7401 35.5539 66.3151 33.8539 66.3151Z" fill="#42E8E0"/>
<path opacity="0.4" d="M67.598 79.2351V70.3101L65.983 69.4601C65.558 72.2651 62.243 74.0501 59.523 74.4751L40.908 85.3551L32.748 88.3301L6.82302 74.9851L7.41803 74.6451C5.20803 73.6251 4.01804 71.2451 2.82804 69.1201L1.04303 70.1401L0.0230207 70.3951V79.4051C0.0230207 80.5951 0.788031 81.7001 2.31803 82.5501L28.328 97.5951C31.388 99.3801 36.318 99.3801 39.378 97.5951L65.388 82.5501C66.918 81.7001 67.683 80.5951 67.683 79.4051C67.598 79.4051 67.598 79.3201 67.598 79.2351Z" fill="#42E8E0"/>
<path d="M67.598 71.3301V65.4651L65.983 64.5301C65.558 67.3351 62.243 69.1201 59.523 69.5451L40.908 80.4251L32.748 83.4001L6.82302 70.0551L7.41803 69.7151C5.20803 68.6951 4.01804 66.3151 2.82804 64.1901L1.04303 65.2101L0.0230207 65.4651V71.5001C0.0230207 72.6901 0.788031 73.7951 2.31803 74.6451L28.328 89.6901C31.388 91.4751 36.318 91.4751 39.378 89.6901L65.388 74.6451C66.918 73.7951 67.683 72.6901 67.683 71.5001C67.598 71.5001 67.598 71.4151 67.598 71.3301Z" fill="url(#paint5_linear_123_11182)"/>
<path opacity="0.3" d="M59.523 69.5451L40.908 80.4251L33.853 82.9751V90.9651C35.893 90.9651 37.848 90.5401 39.378 89.6051L65.388 74.5601C66.918 73.7101 67.683 72.6051 67.683 71.4151C67.683 71.3301 67.683 71.3301 67.683 71.2451V65.3801L66.153 64.5301H65.983C65.473 67.4201 62.243 69.2051 59.523 69.5451Z" fill="#0F054C"/>
<path d="M7.41892 69.6301L32.0689 55.4351C33.0039 54.8401 34.6189 54.8401 35.6389 55.4351L59.8639 69.3751L59.6089 69.5451C62.3289 69.2051 65.6439 67.3351 66.0689 64.5301L38.9539 49.4001L31.0489 47.2751L24.5889 51.0151L2.91391 63.9351C4.01891 66.2301 5.20892 68.6101 7.41892 69.6301Z" fill="url(#paint6_linear_123_11182)"/>
<path opacity="0.3" d="M33.853 48.1249L30.963 47.3599L24.503 51.0999L2.82802 64.0199C4.01802 66.1449 5.20802 68.5249 7.41802 69.5449L32.068 55.3499C32.578 55.0949 33.173 54.9249 33.853 54.9249V48.1249Z" fill="#0F054C"/>
<path d="M28.3294 83.6552L2.31937 68.6102C-0.740625 66.8252 -0.740625 64.0202 2.31937 62.2352L28.3294 47.1902C31.3894 45.4052 36.3194 45.4052 39.3794 47.1902L65.3894 62.2352C68.4494 64.0202 68.4494 66.8252 65.3894 68.6102L39.3794 83.6552C36.3194 85.4402 31.3894 85.4402 28.3294 83.6552ZM35.6394 49.4852C34.7044 48.8902 33.0894 48.8902 32.0694 49.4852L6.05937 64.5302C5.12437 65.1252 5.12437 65.9752 6.05937 66.5702L32.0694 81.6152C33.0044 82.2102 34.6194 82.2102 35.6394 81.6152L61.6494 66.5702C62.5844 65.9752 62.5844 65.1252 61.6494 64.5302L35.6394 49.4852Z" fill="url(#paint7_linear_123_11182)"/>
<path d="M61.5632 64.4449L35.5532 49.3999C34.6182 48.8049 33.0032 48.8049 31.9832 49.3999L5.97323 64.4449C5.29323 64.7849 5.12324 65.3799 5.29324 65.8049C5.37824 65.5499 5.63323 65.3799 5.97323 65.1249L31.9832 50.0799C32.9182 49.4849 34.5332 49.4849 35.5532 50.0799L61.5632 65.1249C61.9032 65.2949 62.0732 65.5499 62.2432 65.8049C62.4982 65.3799 62.2432 64.8699 61.5632 64.4449Z" fill="white"/>
<path d="M65.3882 68.6951L39.3782 83.7401C36.3182 85.5251 31.3882 85.5251 28.3282 83.7401L2.31819 68.6951C0.958192 67.9301 0.193182 66.9101 0.0231816 65.8901C-0.146818 67.1651 0.618192 68.4401 2.31819 69.4601L28.3282 84.5051C31.3882 86.2901 36.3182 86.2901 39.3782 84.5051L65.3882 69.4601C67.0882 68.5251 67.8532 67.1651 67.6832 65.8901C67.4282 66.9101 66.7482 67.8451 65.3882 68.6951Z" fill="white"/>
<path d="M29.0934 83.2298L3.08335 68.2698C0.448347 66.7398 0.448347 64.2748 3.08335 62.7448L29.0934 47.6998C31.7284 46.1698 36.0633 46.1698 38.6983 47.6998L64.7083 62.7448C67.3433 64.2748 67.3433 66.7398 64.7083 68.2698L38.6983 83.3148C35.9783 84.7598 31.7284 84.7598 29.0934 83.2298ZM36.3184 49.0598C34.9584 48.2948 32.6634 48.2948 31.3034 49.0598L5.29335 64.1048C3.93335 64.8698 3.93335 66.2298 5.29335 66.9948L31.3034 82.0398C32.6634 82.8048 34.9584 82.8048 36.3184 82.0398L62.3284 66.9948C63.6884 66.2298 63.6884 64.8698 62.3284 64.1048L36.3184 49.0598Z" fill="url(#paint8_linear_123_11182)"/>
<path opacity="0.4" d="M35.6389 49.4851C34.7039 48.8901 33.0889 48.8901 32.0689 49.4851L6.05891 64.5301C5.12391 65.1251 5.12391 65.9751 6.05891 66.5701L32.0689 81.6151C33.0039 82.2101 34.6189 82.2101 35.6389 81.6151L61.6489 66.5701C62.5839 65.9751 62.5839 65.1251 61.6489 64.5301L35.6389 49.4851Z" fill="#42E8E0"/>
<path opacity="0.5" d="M62.328 65.465L63.093 14.9751H6.14302L5.37802 65.465C5.37802 65.805 5.63302 66.23 6.14302 66.485L32.153 81.53C33.088 82.125 34.703 82.125 35.723 81.53L61.733 66.485C62.073 66.23 62.328 65.805 62.328 65.465Z" fill="url(#paint9_linear_123_11182)"/>
<defs>
<linearGradient id="paint0_linear_123_11182" x1="6.78367" y1="81.9367" x2="60.3998" y2="112.892" gradientUnits="userSpaceOnUse">
<stop stop-color="#BCBEFF"/>
<stop offset="0.2271" stop-color="#AAADF8"/>
<stop offset="0.6802" stop-color="#7C83E5"/>
<stop offset="1" stop-color="#5761D7"/>
</linearGradient>
<linearGradient id="paint1_linear_123_11182" x1="10.0023" y1="79.852" x2="57.8173" y2="107.458" gradientUnits="userSpaceOnUse">
<stop offset="0.2421" stop-color="#5761D7"/>
<stop offset="0.3923" stop-color="#7A82E5"/>
<stop offset="0.5463" stop-color="#979CF0"/>
<stop offset="0.7" stop-color="#ACAFF8"/>
<stop offset="0.8519" stop-color="#B8BAFD"/>
<stop offset="1" stop-color="#BCBEFF"/>
</linearGradient>
<linearGradient id="paint2_linear_123_11182" x1="0.062115" y1="93.6377" x2="67.6385" y2="93.6377" gradientUnits="userSpaceOnUse">
<stop stop-color="#E9E9FD"/>
<stop offset="0.3601" stop-color="#D3D2F9"/>
<stop offset="0.7062" stop-color="#C5C4F7"/>
<stop offset="1" stop-color="#C0BFF6"/>
</linearGradient>
<linearGradient id="paint3_linear_123_11182" x1="1.0986" y1="93.638" x2="66.6" y2="93.638" gradientUnits="userSpaceOnUse">
<stop stop-color="#E9E9FD"/>
<stop offset="0.3601" stop-color="#D3D2F9"/>
<stop offset="0.7062" stop-color="#C5C4F7"/>
<stop offset="1" stop-color="#C0BFF6"/>
</linearGradient>
<linearGradient id="paint4_linear_123_11182" x1="33.9012" y1="110.161" x2="33.9012" y2="25.5212" gradientUnits="userSpaceOnUse">
<stop stop-color="#42E8E0"/>
<stop offset="0.1055" stop-color="#37B6BF"/>
<stop offset="1" stop-color="white" stop-opacity="0"/>
</linearGradient>
<linearGradient id="paint5_linear_123_11182" x1="6.78367" y1="53.7749" x2="60.3997" y2="84.7302" gradientUnits="userSpaceOnUse">
<stop stop-color="#BCBEFF"/>
<stop offset="0.2271" stop-color="#AAADF8"/>
<stop offset="0.6802" stop-color="#7C83E5"/>
<stop offset="1" stop-color="#5761D7"/>
</linearGradient>
<linearGradient id="paint6_linear_123_11182" x1="10.0023" y1="51.6903" x2="57.8173" y2="79.2962" gradientUnits="userSpaceOnUse">
<stop offset="0.2421" stop-color="#5761D7"/>
<stop offset="0.3923" stop-color="#7A82E5"/>
<stop offset="0.5463" stop-color="#979CF0"/>
<stop offset="0.7" stop-color="#ACAFF8"/>
<stop offset="0.8519" stop-color="#B8BAFD"/>
<stop offset="1" stop-color="#BCBEFF"/>
</linearGradient>
<linearGradient id="paint7_linear_123_11182" x1="0.062115" y1="65.476" x2="67.6385" y2="65.476" gradientUnits="userSpaceOnUse">
<stop stop-color="#E9E9FD"/>
<stop offset="0.3601" stop-color="#D3D2F9"/>
<stop offset="0.7062" stop-color="#C5C4F7"/>
<stop offset="1" stop-color="#C0BFF6"/>
</linearGradient>
<linearGradient id="paint8_linear_123_11182" x1="1.0986" y1="65.4756" x2="66.6" y2="65.4756" gradientUnits="userSpaceOnUse">
<stop stop-color="#E9E9FD"/>
<stop offset="0.3601" stop-color="#D3D2F9"/>
<stop offset="0.7062" stop-color="#C5C4F7"/>
<stop offset="1" stop-color="#C0BFF6"/>
</linearGradient>
<linearGradient id="paint9_linear_123_11182" x1="33.9012" y1="82.026" x2="33.9999" y2="15.4001" gradientUnits="userSpaceOnUse">
<stop stop-color="#42E8E0"/>
<stop offset="0.1055" stop-color="#37B6BF"/>
<stop offset="1" stop-color="white" stop-opacity="0"/>
</linearGradient>
</defs>
</svg>
