<svg width="32" height="33" viewBox="0 0 32 33" fill="none" xmlns="http://www.w3.org/2000/svg">
<path d="M22.0001 0.804688H10.0001C4.47728 0.804688 0.00012207 5.28183 0.00012207 10.8047V22.8047C0.00012207 28.3275 4.47728 32.8047 10.0001 32.8047H22.0001C27.523 32.8047 32.0002 28.3275 32.0002 22.8047V10.8047C32.0002 5.28183 27.523 0.804688 22.0001 0.804688Z" fill="#485064"/>
<path d="M24.9907 10.0057C24.9399 10.7419 24.5311 13.3172 24.1209 16.1026L22.8436 24.3547C22.8436 24.3547 22.7407 25.5593 21.8723 25.7735C21.0038 25.9876 19.5715 25.0373 19.315 24.8272C19.1105 24.6692 15.4804 22.304 14.151 21.1489C13.7929 20.833 13.384 20.2025 14.203 19.4664C16.0429 17.7263 18.2395 15.5766 19.5715 14.21C20.1848 13.5795 20.798 12.1085 18.2421 13.8954L11.0325 18.8881C11.0325 18.8881 10.2148 19.4142 8.68094 18.9403C7.1471 18.4665 5.35674 17.8374 5.35674 17.8374C5.35674 17.8374 4.13018 17.049 6.22652 16.207L18.1392 11.1621C19.3111 10.6361 23.3032 8.95492 23.3032 8.95492C23.3032 8.95492 25.147 8.21874 24.9907 10.0057Z" fill="#F9FBFD"/>
</svg>
