<svg width="316" height="46" viewBox="0 0 316 46" fill="none" xmlns="http://www.w3.org/2000/svg">
<path d="M18.8765 6.21755H26.1493V7.56699H23.2896V15.1529H21.7171V7.56699H18.8701V6.21755H18.8765H18.8765ZM25.8386 8.68312H27.1828V9.93168H27.2082C27.2526 9.75511 27.335 9.58486 27.4555 9.4209C27.5759 9.25695 27.7218 9.09931 27.893 8.96689C28.0642 8.82816 28.2544 8.72096 28.4636 8.63268C28.6729 8.5507 28.8885 8.50656 29.104 8.50656C29.2689 8.50656 29.3894 8.51287 29.4528 8.51917C29.5162 8.52548 29.5796 8.53809 29.6493 8.54439V9.91907C29.5479 9.90015 29.4464 9.88754 29.3386 9.87492C29.2309 9.86231 29.1294 9.85601 29.028 9.85601C28.787 9.85601 28.5587 9.90645 28.3432 10.001C28.1276 10.0956 27.9437 10.2407 27.7852 10.4235C27.6267 10.6127 27.4998 10.8397 27.4047 11.1172C27.3096 11.3946 27.2652 11.7099 27.2652 12.0694V15.1466H25.8322V8.68312H25.8386V8.68312ZM36.2374 15.1529H34.8297V14.2512H34.8044C34.6268 14.5791 34.3668 14.8376 34.0181 15.0331C33.6694 15.2286 33.3143 15.3295 32.9529 15.3295C32.0969 15.3295 31.4755 15.1214 31.095 14.6989C30.7146 14.2764 30.5244 13.6395 30.5244 12.7882V8.68312H31.9574V12.6495C31.9574 13.217 32.0652 13.6206 32.2871 13.8539C32.5027 14.0872 32.8134 14.207 33.2065 14.207C33.5108 14.207 33.7581 14.1629 33.961 14.0683C34.1639 13.9737 34.3288 13.8539 34.4493 13.6963C34.5761 13.5449 34.6649 13.3557 34.7219 13.1413C34.779 12.9269 34.8044 12.6936 34.8044 12.4414V8.68943H36.2374V15.1529V15.1529ZM38.6785 13.0783C38.7229 13.4945 38.8814 13.7845 39.1541 13.9548C39.4331 14.1187 39.7628 14.207 40.1496 14.207C40.2827 14.207 40.4349 14.1944 40.6061 14.1755C40.7773 14.1566 40.9422 14.1124 41.088 14.0557C41.2402 13.9989 41.3607 13.9107 41.4621 13.7971C41.5572 13.6836 41.6016 13.5386 41.5953 13.3557C41.5889 13.1729 41.5192 13.0215 41.3924 12.908C41.2655 12.7882 41.107 12.6999 40.9105 12.6243C40.7139 12.5549 40.492 12.4918 40.2383 12.4414C39.9847 12.3909 39.7311 12.3342 39.4711 12.2774C39.2048 12.2207 38.9448 12.145 38.6976 12.063C38.4503 11.9811 38.2283 11.8676 38.0318 11.7225C37.8352 11.5838 37.6767 11.4009 37.5626 11.1802C37.4421 10.9595 37.385 10.6884 37.385 10.3605C37.385 10.0073 37.4738 9.71728 37.645 9.47766C37.8162 9.23804 38.0381 9.04886 38.2981 8.90383C38.5644 8.75879 38.8561 8.6579 39.1795 8.59484C39.5028 8.53809 39.8135 8.50656 40.1052 8.50656C40.4413 8.50656 40.7646 8.5444 41.069 8.61376C41.3733 8.68312 41.6523 8.79663 41.8996 8.96058C42.1469 9.11823 42.3498 9.32632 42.5147 9.57855C42.6795 9.83078 42.781 10.1398 42.8254 10.4992H41.329C41.2592 10.1587 41.107 9.92537 40.8597 9.81187C40.6125 9.69206 40.3271 9.6353 40.0101 9.6353C39.9086 9.6353 39.7882 9.64161 39.6487 9.66053C39.5092 9.67944 39.3824 9.71097 39.2555 9.75511C39.1351 9.79925 39.0336 9.86862 38.9448 9.9569C38.8624 10.0452 38.818 10.1587 38.818 10.3037C38.818 10.4803 38.8814 10.619 39.0019 10.7262C39.1224 10.8334 39.2809 10.9217 39.4775 10.9974C39.674 11.0667 39.896 11.1298 40.1496 11.1802C40.4032 11.2307 40.6632 11.2874 40.9295 11.3442C41.1895 11.4009 41.4431 11.4766 41.6967 11.5586C41.9503 11.6406 42.1723 11.7541 42.3688 11.8991C42.5654 12.0441 42.7239 12.2207 42.8444 12.4351C42.9649 12.6495 43.0283 12.9206 43.0283 13.2359C43.0283 13.6206 42.9395 13.9422 42.762 14.2133C42.5844 14.4782 42.3562 14.6989 42.0772 14.8628C41.7982 15.0268 41.4811 15.1529 41.1387 15.2286C40.7963 15.3042 40.4539 15.3421 40.1179 15.3421C39.7057 15.3421 39.3253 15.2979 38.9765 15.2033C38.6278 15.1088 38.3235 14.97 38.0698 14.7872C37.8162 14.598 37.6133 14.3647 37.4675 14.0872C37.3216 13.8098 37.2455 13.4756 37.2328 13.0909H38.6785V13.0783ZM43.4087 8.68312H44.493V6.74093H45.926V8.68312H47.2195V9.74881H45.926V13.2044C45.926 13.3557 45.9323 13.4819 45.945 13.5954C45.9577 13.7026 45.9894 13.7971 46.0338 13.8728C46.0782 13.9485 46.1479 14.0052 46.243 14.0431C46.3381 14.0809 46.4586 14.0998 46.6235 14.0998C46.7249 14.0998 46.8264 14.0998 46.9278 14.0935C47.0293 14.0872 47.1307 14.0746 47.2322 14.0494V15.1529C47.0736 15.1718 46.9151 15.1844 46.7693 15.2033C46.6171 15.2223 46.4649 15.2286 46.3064 15.2286C45.926 15.2286 45.6216 15.1907 45.3934 15.1214C45.1651 15.052 44.9812 14.9448 44.8544 14.8061C44.7212 14.6674 44.6388 14.4971 44.5881 14.289C44.5437 14.0809 44.512 13.8413 44.5057 13.5764V9.76142H43.4214V8.68312H43.4087ZM48.234 8.68312H49.5909V9.55963H49.6163C49.8192 9.18128 50.0982 8.91644 50.4596 8.75249C50.821 8.58854 51.2078 8.50656 51.6326 8.50656C52.1462 8.50656 52.5901 8.59484 52.9705 8.77771C53.351 8.95427 53.668 9.2002 53.9216 9.51549C54.1753 9.83078 54.3591 10.1965 54.486 10.6127C54.6128 11.0289 54.6762 11.4766 54.6762 11.9495C54.6762 12.3846 54.6191 12.8071 54.505 13.2107C54.3908 13.6206 54.2196 13.98 53.9914 14.2953C53.7631 14.6106 53.4714 14.8565 53.1164 15.0457C52.7613 15.2349 52.3491 15.3295 51.8672 15.3295C51.658 15.3295 51.4487 15.3105 51.2395 15.2727C51.0303 15.2349 50.8274 15.1718 50.6371 15.0898C50.4469 15.0079 50.263 14.9007 50.1045 14.7682C49.9397 14.6358 49.8065 14.4845 49.6924 14.3142H49.667V17.5428H48.234V8.68312V8.68312ZM53.2432 11.9243C53.2432 11.6342 53.2051 11.3505 53.129 11.073C53.0529 10.7956 52.9388 10.556 52.7866 10.3416C52.6345 10.1272 52.4442 9.9569 52.2223 9.83078C51.994 9.70467 51.7341 9.6353 51.4424 9.6353C50.84 9.6353 50.3835 9.8434 50.0792 10.2596C49.7748 10.6758 49.6226 11.2307 49.6226 11.9243C49.6226 12.2522 49.6607 12.5549 49.7431 12.8324C49.8255 13.1098 49.9397 13.3494 50.1045 13.5512C50.263 13.753 50.4533 13.9107 50.6752 14.0242C50.8971 14.144 51.1571 14.2007 51.4487 14.2007C51.7785 14.2007 52.0511 14.1314 52.2794 13.9989C52.5076 13.8665 52.6915 13.6899 52.8374 13.4819C52.9832 13.2675 53.091 13.0278 53.1544 12.7567C53.2115 12.4855 53.2432 12.2081 53.2432 11.9243ZM55.7731 6.21754H57.2061V7.56699H55.7731V6.21755V6.21754ZM55.7731 8.68312H57.2061V15.1529H55.7731V8.68312ZM58.4869 6.21754H59.92V15.1529H58.4869V6.21755V6.21754ZM64.3141 15.3295C63.7941 15.3295 63.3313 15.2412 62.9255 15.0709C62.5196 14.9007 62.1772 14.661 61.8919 14.3647C61.6129 14.062 61.3973 13.7026 61.2515 13.2864C61.1057 12.8702 61.0296 12.4099 61.0296 11.9117C61.0296 11.4199 61.1057 10.9658 61.2515 10.5496C61.3973 10.1335 61.6129 9.77403 61.8919 9.47135C62.1709 9.16867 62.5196 8.93536 62.9255 8.7651C63.3313 8.59484 63.7941 8.50656 64.3141 8.50656C64.834 8.50656 65.2969 8.59484 65.7027 8.7651C66.1085 8.93536 66.4509 9.17498 66.7362 9.47135C67.0152 9.77403 67.2308 10.1335 67.3766 10.5496C67.5225 10.9658 67.5986 11.4199 67.5986 11.9117C67.5986 12.4099 67.5225 12.8702 67.3766 13.2864C67.2308 13.7026 67.0152 14.062 66.7362 14.3647C66.4572 14.6674 66.1085 14.9007 65.7027 15.0709C65.2969 15.2412 64.834 15.3295 64.3141 15.3295ZM64.3141 14.2007C64.6311 14.2007 64.9101 14.1314 65.1447 13.9989C65.3793 13.8665 65.5695 13.6899 65.7217 13.4756C65.8739 13.2612 65.9817 13.0152 66.0578 12.7441C66.1275 12.4729 66.1656 12.1955 66.1656 11.9117C66.1656 11.6343 66.1275 11.3631 66.0578 11.0856C65.988 10.8082 65.8739 10.5686 65.7217 10.3542C65.5695 10.1398 65.3793 9.96951 65.1447 9.83709C64.9101 9.70467 64.6311 9.6353 64.3141 9.6353C63.997 9.6353 63.718 9.70467 63.4834 9.83709C63.2488 9.96951 63.0586 10.1461 62.9064 10.3542C62.7542 10.5686 62.6465 10.8082 62.5704 11.0856C62.5006 11.3631 62.4626 11.6343 62.4626 11.9117C62.4626 12.1955 62.5006 12.4729 62.5704 12.7441C62.6401 13.0152 62.7542 13.2612 62.9064 13.4756C63.0586 13.6899 63.2488 13.8665 63.4834 13.9989C63.718 14.1377 63.997 14.2007 64.3141 14.2007ZM68.017 8.68312H69.1013V6.74093H70.5343V8.68312H71.8278V9.74881H70.5343V13.2044C70.5343 13.3557 70.5407 13.4819 70.5533 13.5954C70.566 13.7026 70.5977 13.7971 70.6421 13.8728C70.6865 13.9485 70.7562 14.0052 70.8514 14.0431C70.9465 14.0809 71.0669 14.0998 71.2318 14.0998C71.3333 14.0998 71.4347 14.0998 71.5362 14.0935C71.6376 14.0872 71.7391 14.0746 71.8405 14.0494V15.1529C71.682 15.1718 71.5235 15.1844 71.3776 15.2033C71.2255 15.2223 71.0733 15.2286 70.9148 15.2286C70.5343 15.2286 70.23 15.1907 70.0017 15.1214C69.7734 15.052 69.5896 14.9448 69.4627 14.8061C69.3296 14.6674 69.2472 14.4971 69.1964 14.289C69.152 14.0809 69.1203 13.8413 69.114 13.5764V9.76142H68.0297V8.68312H68.017V8.68312Z" fill="#202027"/>
<path d="M17.2024 6.21755H10.6334L8.60436 0L6.56899 6.21755L0 6.21124L5.31987 10.0578L3.28449 16.269L8.60436 12.4288L13.9179 16.269L11.8889 10.0578L17.2024 6.21755V6.21755Z" fill="#00B67A"/>
<path d="M12.3445 11.4639L11.888 10.0577L8.60352 12.4287L12.3445 11.4639Z" fill="#005128"/>
<path d="M0.458984 37.7264H13.6539V24.5428H0.458984V37.7264Z" fill="#16E09E"/>
<path d="M11.7067 30.1518L4.22269 35.5838L5.31475 32.2267L2.45605 30.1518H5.98955L7.08138 26.7945L8.17322 30.1518H11.7067ZM7.08166 33.5092L9.12556 33.0797L9.9399 35.5838L7.08166 33.5092Z" fill="white"/>
<path d="M15.6543 37.7264H28.8493V24.5428H15.6543V37.7264Z" fill="#16E09E"/>
<path d="M15.6543 37.7264H22.2518V24.5428H15.6543V37.7264Z" fill="#16E09E"/>
<path d="M22.4095 33.458L24.1622 33.0795L24.9728 35.6406L22.2243 33.5909L19.3685 35.6406L20.4769 32.2712L17.5752 30.1888H21.1618L22.2697 26.8193L23.3781 30.1888H26.9645L22.4095 33.458V33.458Z" fill="white"/>
<path d="M30.8486 37.7264H44.0436V24.5428H30.8486V37.7264Z" fill="#16E09E"/>
<path d="M30.8486 37.7264H37.4461V24.5428H30.8486V37.7264Z" fill="#16E09E"/>
<path d="M42.0964 30.1518L34.6123 35.5838L35.7044 32.2267L32.8457 30.1518H36.3792L37.471 26.7944L38.5629 30.1518H42.0964V30.1518ZM37.4713 33.5092L39.5152 33.0797L40.3295 35.5838L37.4713 33.5092Z" fill="white"/>
<path d="M46.0439 37.7264H59.2389V24.5428H46.0439V37.7264Z" fill="#16E09E"/>
<path d="M46.0439 37.7264H52.6414V24.5428H46.0439V37.7264Z" fill="#16E09E"/>
<path d="M57.2917 30.1518L49.8076 35.5838L50.8997 32.2267L48.041 30.1518H51.5745L52.6663 26.7944L53.7582 30.1518H57.2917V30.1518ZM52.6666 33.5092L54.7105 33.0797L55.5249 35.5838L52.6666 33.5092Z" fill="white"/>
<path d="M61.2393 37.7264H74.4342V24.5428H61.2393V37.7264Z" fill="#DCDCE6"/>
<path d="M61.2393 37.7264H67.8367V24.5428H61.2393V37.7264Z" fill="#16E09E"/>
<path d="M72.487 30.1519L65.0032 35.5839L66.095 32.2267L63.2363 30.1519H66.7698L67.8617 26.7945L68.9535 30.1519H72.487V30.1519ZM67.8619 33.5093L69.9058 33.0797L70.7202 35.5839L67.8619 33.5093Z" fill="white"/>
</svg>
