<svg width="32" height="33" viewBox="0 0 32 33" fill="none" xmlns="http://www.w3.org/2000/svg">
<path d="M22 0.804688H10C4.47716 0.804688 0 5.28183 0 10.8047V22.8047C0 28.3275 4.47716 32.8047 10 32.8047H22C27.5229 32.8047 32 28.3275 32 22.8047V10.8047C32 5.28183 27.5229 0.804688 22 0.804688Z" fill="#485064"/>
<path d="M23.6434 11.4851C24.4569 11.3849 25.2513 11.1572 26 10.8098C25.4496 11.6727 24.7567 12.4261 23.9536 13.0345C23.9611 13.2191 23.9648 13.4036 23.9648 13.5894C23.9648 19.2626 19.837 25.8047 12.2893 25.8047C10.0595 25.8069 7.87619 25.1377 6 23.877C6.32469 23.9165 6.65128 23.9361 6.97815 23.9359C8.82556 23.9406 10.6208 23.2953 12.0754 22.1037C11.219 22.0867 10.389 21.7901 9.70161 21.2553C9.01421 20.7206 8.50371 19.9744 8.24153 19.1212C8.49577 19.1734 8.75423 19.1997 9.0133 19.1998C9.3784 19.1997 9.74187 19.1486 10.0941 19.0479C9.16561 18.8514 8.33071 18.3249 7.7309 17.5578C7.13109 16.7908 6.80327 15.8303 6.80304 14.8392V14.7843C7.37265 15.1164 8.01006 15.3008 8.66184 15.3221C7.79267 14.7152 7.17741 13.7844 6.9415 12.7193C6.7056 11.6542 6.86678 10.5351 7.39219 9.59008C8.4223 10.9166 9.70762 12.0015 11.1646 12.7744C12.6216 13.5473 14.2177 13.9908 15.8493 14.0763C15.6442 13.1556 15.7351 12.1898 16.1078 11.3287C16.4806 10.4675 17.1144 9.75905 17.9111 9.31301C18.7077 8.86697 19.6228 8.70827 20.5144 8.86152C21.406 9.01477 22.2244 9.47142 22.8428 10.1607C23.7621 9.96974 24.6433 9.61565 25.4484 9.11374C25.1415 10.107 24.5 10.9498 23.6434 11.4851Z" fill="#F9FBFD"/>
</svg>
